<?xml version="1.0" encoding="UTF-8"?><svg id="Layer_2" xmlns="http://www.w3.org/2000/svg" viewBox="0 0 982.35 563.87"><defs><style>.cls-1{fill:#020204;stroke-width:0px;}</style></defs><g id="Layer_1-2"><path class="cls-1" d="m783.38,179.72c-.43-.99-.86-1.98-1.3-2.96-1.82-1.33-2.26-3.53-3.3-5.34-2.11-3.67-3.78-7.74-6.94-10.59-5.78-5.23-10.58-11.61-17.65-15.41-2.01-1.1-3.75-2.75-5.47-4.34-2.22-1.98-4.71-3.62-7.4-4.88-2.26-1.1-4.73-1.92-6.37-4.03l-3.06-1.03c-.63.13-1.28.07-1.87-.15-.6-.22-1.12-.61-1.51-1.12l-2.12-.47c-.63.35-1.36.47-2.07.35-.71-.12-1.36-.47-1.84-1.01l-2.03-.39c-2.32.65-4.81.36-6.92-.8-4.64-.39-9.31-.41-13.95-.05-.99,1.26-2.44,1.65-3.85,2.03-2.06.55-3.85,1.74-5.76,2.64-5.86,2.75-9.7,6.73-9.57,13.65.03,1.84-.89,3.3-2.93,3.56-1.78.23-3.13,1.2-4.45,2.3-1.99,1.62-4.44,2.56-7.01,2.69l-4.55,1.4c-.03.11-.09.21-.17.29-.08.08-.17.15-.28.19s-.22.06-.33.06c-.11,0-.22-.04-.32-.09l-1.43,1.35c.03.13.03.27,0,.4-.03.13-.08.26-.16.37-.08.11-.18.2-.3.27-.12.07-.25.11-.39.12-.15.15-.3.31-.42.48-.02.14-.06.27-.13.38-.07.12-.17.22-.28.29-.11.08-.24.13-.38.15-.13.02-.27.02-.4-.02-1.27.77-2.51,1.6-3.83,2.27s-2.54-.07-2.62-1.62c-.33-5.08.04-10.18,1.1-15.16,2.12-9.57,2.45-19.26,2.49-29.05.03-7.51-2.27-14.6-3.02-21.97-.4-3.9-2.2-7.71-3.7-11.43-2.06-5.09-4.43-10.06-6.67-15.09-1.21-.69-1.56-1.93-1.95-3.12-1.25-3.89-3.55-7.01-6.39-9.97-3.76-3.92-7.44-7.89-11.82-11.14-.9-.57-1.64-1.36-2.16-2.29-.52-.93-.8-1.98-.81-3.05-.23-9.61-6.39-14.83-14.15-18.71-1.9-.96-3.85-1.65-5.3-3.35-1.44-1.58-3.26-2.78-5.28-3.48-4.33-1.69-8.63-3.47-13.03-4.92-2.24-.78-4.66-.84-6.94-.17-2.84.91-5.44.37-8.01-.9-1.73-.86-3.58-1.58-5.5-1.47-4.19.24-7.92-1.2-11.61-2.85-.47.19-.98.23-1.47.12-.49-.11-.94-.37-1.28-.74l-1.24-.55c-.43.15-.89.19-1.33.1-.45-.09-.86-.29-1.2-.58l-4.88-.86c-2.08.77-4.37.75-6.43-.07l-3.57.67c-.2.25-.49.42-.8.48-.32.05-.64,0-.92-.18l-3.46-.03c-4.65.25-9.31.74-13.96.68-2.75-.08-5.47.65-7.82,2.09-3.64,2.17-7.25,4.45-11.12,6.13-3.21,1.39-6.1,3.02-8.16,5.82-.74,1.03-1.72,1.88-2.84,2.48-1.13.6-2.37.93-3.65.97-1.25,1.23-2.86,1.81-4.4,2.5-5.43,2.47-10.63,5.43-15.52,8.85-2.47,1.67-4.52,3.9-5.98,6.5-1.88,3.3-3.72,6.67-6.21,9.64-1.47,1.76-2.38,4.01-3.42,6.1-4.18,8.38-8.55,16.67-12.42,25.19-6.15,13.57-12.18,27.27-15.46,41.83-2.15,9.54-5.59,18.78-6.7,28.55-.16.83-.43,1.64-.8,2.4-.26.66-1.7.75-2.13.15-.4-.5-.75-1.03-1.05-1.59-.55-1.14-1.07-2.32-1.55-3.51-3.44-8.4-9.68-13.84-18.05-16.98-1.79-.67-3.74-1.05-5.03-2.61-1.89-2.28-4.44-3.01-7.23-3.62-7.5-1.65-14.93-3.47-22.63-4-6.43-.43-12.77-.22-18.97,1.73-3.25,1.02-6.54,1.91-9.81,2.86-4.86,1.41-8.76,4.27-12.21,7.88-7.28,7.51-13.34,16.1-17.97,25.48-.55,1.15-.84,2.58-2.25,2.9-2.9.65-3.82,2.23-2.99,5.09.55,1.98-.3,3.73-1.37,5.4-1.71,2.69-3.5,5.32-3.6,8.73-.05,1.81-1.29,3.16-2.87,3.98-2.11,1.1-3.82,2.69-5.71,4.05-4.86,3.47-5.73,8.2-4.57,13.58.57,2.27.91,4.59,1.02,6.93.09,4.74-.47,9.3-2.45,13.69-.95,2.12-1.47,4.44-2.2,6.67,1.05,2.2.69,4.37-.37,6.47l.63,9.77c1.86.35,3.21-.14,3.97-2.05.68-1.73.23-3.8,1.65-5.3v-2.43c-.35-.39-.59-.87-.71-1.37-.12-.51-.11-1.04.02-1.55.55-2.69,2.33-3.62,4.53-2.2,1.55,1,3.46,1.6,4.4,3.39l3.52,1.65c4.08-.46,6.58,1.24,8.51,4.95,1.77,3.41,1.75,5.91-1.2,8.32-.48,1.1-.96,2.17-1.45,3.26,1.59,1.32,3.64,1.96,5.7,1.77,1.7-.09,2.17.7,1.76,2.33-.5,1.95-.65,4.11-2.7,5.28-.88,2.33-2.53,4.3-4.68,5.56-1.57.96-2.98,2.2-4.45,3.3-1.92,3.1-5.25,3.5-8.34,4.36-1.9.95-3.82,1.87-5.71,2.85-3.46,1.79-7.04,3.02-11.01,2.58-3.42-.38-6.24.74-8.66,3.15-1.94,1.98-4.36,3.42-7.02,4.18-9.57,2.75-16.96,8.6-22.8,16.57-.96,1.31-1.62,3.48-3.58,3.23-2.3-.29-2.34-2.75-2.87-4.45-1.85-5.88-3.52-11.82-5.18-17.76-1.59-5.74-3.53-11.38-5.78-16.89-.78-1.75-1.37-3.57-1.77-5.44-.53-2.92-1.62-5.71-3.21-8.22-1.42-2.31-2.23-5.05-3.02-7.68-2.96-9.99-6.56-19.79-10.77-29.33-1.1-2.43-2.43-4.48-4.53-6.01-6.2-4.52-12.44-8.97-19.91-11.23-3.64-1.1-6.8-3.56-10.81-3.68-1.35-.04-2.3-1.04-3.05-2.1-1.32-1.87-3.26-2.53-5.39-3.05-7.3-1.78-14.74-2.04-22.18-2.12-2.55-.03-5.11.25-7.56-.77-.11.07-.23.11-.35.12-.13.01-.25,0-.37-.05-.12-.04-.23-.11-.32-.2-.09-.09-.16-.2-.2-.32l-2.61-.75c-.59.2-1.21.28-1.83.22-.62-.06-1.22-.26-1.75-.58-1.85-.18-3.68-.4-4.9-2.05-2.35-1.16-.69-4.02-2.42-5.55-2.52-2.2-2.44-5.3-2.1-8.26.34-2.96,1.02-5.82,1.61-8.71.42-2.06,1.65-3.53,3.79-3.7,2.69-.22,4.54-2.16,6.92-2.95.86-3.3,1.22-6.71,1.07-10.11-.06-2.54.1-5.09.12-7.64,0-1.7.25-3.47-.14-5.08-1.16-4.82-.84-9.73-1.26-14.59-.4-4.65-.39-9.32-2.12-13.8-.87-2.23-.36-4.6.41-6.87,2.3-6.77,2.71-13.76,1.9-20.77-.55-4.87-1.17-9.72-1.01-14.62.02-2.57-.61-5.09-1.83-7.35-1.83-3.59-3.57-7.22-6.01-10.5-2.41-3.24-4.61-6.64-6.58-10.17-4.25-7.62-10.95-12.3-18.64-15.77-2.7-1.21-5.31-2.63-7.79-4.24-4.9-3.18-10.54-4.44-16.31-4.89-2.59-.2-5.07-.55-7.16-2.2-2.24-1.77-4.46-2.2-6.93-.29-.61.47-1.36.69-2.13.64-.76-.06-1.48-.39-2.01-.95-1.87-1.81-3.73-1.65-5.82-.69-.77.35-1.62.55-2.38.92-2.84,1.44-5.32,2-8.05-.73-1.9-1.9-4.83-1.03-7.35-.66v560.17h962.98c.09-1.06.11-2.13.07-3.19-1.04-11.56.55-22.96,2.42-34.32.62-3.79.81-7.63.55-11.46-.38-5.5-.94-11.04-1.31-16.56-.28-2.75-.33-5.53-.12-8.29,1.21-11.27.78-22.57.48-33.83-.37-14.26-.86-28.52-1.3-42.78-.24-7.66-.55-15.32-.72-22.99-.12-5.11.09-10.22.63-15.31.81-7.89-.34-15.86-3.36-23.19-7.55-19-15.45-37.85-24.8-56.06-5.46-10.61-11.86-20.72-19.12-30.19-.91-1.18-1.83-2.37-2.64-3.61-.38-.53-.57-1.16-.57-1.81s.2-1.28.57-1.81c3.3-4.95,6.3-10.13,10.73-14.25,2.92-2.7,6.12-3.89,9.91-2.6,5.75,1.95,11.77,1.74,17.67,2.45,2.38.29,4.69-.06,6.67-1.61,1.97-1.55,3.34-3.38,3.22-5.93-.15-3.21.46-5.92,3.66-7.44.35-.17.83-.6.83-.91-.03-4.04,3.6-6.61,4.19-10.25.51-3.23,1.88-4.83,5.15-5.43,6.83-1.27,8.04-3.9,5-10.27-1.65-3.46-3.36-6.9-5.26-10.23-2.68-4.77-3.3-9.61-1.07-14.69,2.23-5.07,1.84-10.56.82-15.73-1.82-9.17-4.02-18.28-7.19-27.12-.81-2.43-2.32-4.57-4.35-6.15-3.85-3.01-7.64-6.12-11.45-9.19-.12.04-.25.05-.38.04-.12-.01-.24-.06-.35-.12s-.2-.15-.27-.26c-.07-.1-.12-.22-.14-.35l-1.19-.71c-.28.08-.57.05-.83-.09-.26-.14-.45-.37-.53-.64-.34-.24-.71-.45-1.1-.61-.28.09-.59.07-.86-.06-.27-.13-.48-.35-.58-.63l-6.57-4.25c-.13.03-.27.03-.39,0-.13-.02-.25-.08-.35-.15-.11-.08-.21-.17-.27-.29-.07-.11-.11-.24-.13-.37l-2.55-1.77c-4.91-1.65-9.91-2.63-15.15-2.4-.4-.05-.81-.16-1.18-.32l-4.89.75c-2.75.86-5.44.97-8.11-.22l-1.31-.45c-.15.02-.31.01-.46-.03-.15-.04-.29-.12-.41-.22-.12-.1-.22-.22-.29-.36-.08-.14-.12-.29-.13-.45l-1.24-1.51c-.26.06-.53.03-.77-.09-.24-.12-.43-.31-.54-.56l-2.38-.73c-.32.05-.64-.03-.91-.22-.26-.18-.45-.46-.51-.77-1.77-2.11-3.49-4.27-5.84-5.78-6.22-1.89-12.06-1.29-17.5,2.47-1.01.69-2.31.96-3.48,1.42l-3.43,2.92c-.95,2.25-2.98,3.57-4.58,5.25-2.64,2.78-5.43,5.46-7.37,8.81-6.11,10.46-12.4,20.87-16.95,32.18-.99,2.59-2.38,5-4.12,7.16-3.85,4.63-6.05,10.23-8.81,15.53-.85,1.74-1.21,3.67-1.05,5.6.22,3.65-.55,7.19-.99,10.78-.55,4.35-1.49,8.26-5.12,11.28-1.87,1.54-2.72,3.85-1.65,6.37,3.01,7.05.88,13.36-3.03,19.24-1.28,1.92-1.61,3.78-1.78,5.94-.61,8.06-1.1,16.14-3.45,23.95.19,1.13.38,2.27.55,3.4,1.62,4.81,3.26,9.6,4.83,14.42.17.62.17,1.27,0,1.88-.02.16-.09.31-.19.44-.1.13-.23.23-.38.29-.15.06-.31.08-.48.06-.16-.02-.31-.08-.44-.18-2.86-2.75-6.53-4.86-7.71-9.07-.57-.69-1.14-1.38-1.71-2.07-2.11-.7-3.4-2.02-3.3-4.4-.28-.63-.55-1.26-.84-1.89-2.49-4.66-2.02-9.54-1.1-14.47,0-1.69.05-3.39.08-5.08-.75-2.05-.55-3.91,1.1-5.47.39-1.01.77-2.01,1.16-3.02-.32-2.56-1-5.11-2.81-6.94-2.83-2.85-4.07-6.25-4.7-10.07-.23-1.44-1.02-2.75-1.4-4.2-.55-2.01-1.5-3.98-.93-6.17-.19-.69-.39-1.39-.59-2.09-2.51-5.04-3.7-10.54-5.42-15.85-.4-1.34-.46-2.83-.69-4.25Zm-481.65,74.54c-.51,1.6-1.39,3.05-2.57,4.24-1.18,1.19-2.64,2.07-4.24,2.58-.29.09-.59.13-.9.09-.3-.03-.59-.13-.86-.28-.22-.21-.39-.47-.49-.76-.1-.29-.12-.6-.06-.9,1.48-3.46,2.94-6.98,6.86-8.49.55-1.61.98-3.25,1.65-4.79.19-.23.43-.41.71-.53.28-.11.58-.16.87-.12.29.1.55.27.77.49.22.22.38.48.48.77.72,2.97-.48,5.43-2.23,7.7Zm95.12-24.86c1.1,2.68,1.86,5.5,2.26,8.37,1.04,5.86,1.95,11.76,3.38,17.54,2.2,8.85,4.45,17.7,8.59,25.92.68,1.34,0,2.47-1.38,2.99-1.41.53-2.91.75-4.41.66-1.5-.1-2.96-.51-4.29-1.21-4-2.1-8.26-3.37-12.41-5.02-6.39-2.54-11.33-6.6-14.5-12.8-1.38-2.69-.65-4.65,2.2-5.25,2.28-.49,4.64-.7,6.91-1.26,4.1-1.01,6.73-3.51,7.24-7.88.1-.84.25-1.68.3-2.53.29-6.74,3.14-12.68,6.12-19.53Zm-242.88,63h.25c.19-2.75.35-5.5.58-8.26.1-1.26.3-2.52.6-3.75.44-1.82,1.94-2.33,3.3-1.23,2.11,1.78,3.85,3.95,5.11,6.4,4.78,8.53,7.99,17.77,12.05,26.61.77,1.68,1.85,3.37,1.27,5.4-2.58.87-3.69-1.35-5.22-2.58-1.16-.92-2.19-2-3.05-3.21-1.65-2.33-3.89-3.85-6.31-5.2-1.86-1.01-3.74-2-5.66-2.89-2.16-1-3.26-2.44-2.99-4.95.21-2.1.05-4.24.05-6.35h.02Zm676.42-33.15c.08.41.32.86.22,1.21-1.81,6.28-4.61,12.23-6.13,18.61-.35,1.22-.98,2.35-1.82,3.3-.56.64-.98,1.38-1.23,2.19s-.33,1.66-.22,2.51c.16,1.5.19,3.08-.85,4.27-1.66,1.92-3.44,3.73-5.34,5.42-1.46,1.28-3.38.23-3.67-1.79-.29-1.93.4-3.8.39-5.68,0-2.82,1.1-6.02-1.9-8.21-.19-.2-.3-.47-.3-.75s.12-.54.32-.74c.2-.19.47-.3.75-.3.28,0,.54.12.74.32,1.52,1.13,2.92,2.44,4.47,3.53.28.12.58.16.88.13.3-.03.59-.13.84-.3.2-.22.35-.48.43-.77.08-.29.1-.59.05-.88-.33-1-.73-1.99-1.18-2.94-.72-1.85-.95-3.72.07-5.54.93-1.65,2.61-1.05,4.01-1.22,2.37-.29,3.94-1.38,4.3-3.9.5-3.45,3.34-5.7,5.19-8.48ZM229.68,443.23c-.88-1.25-.17-2.48.07-3.66.71-3.51,1.46-7.02,2.36-10.46.72-2.75.5-5.9,2.93-8.04,2.75,2.55,1.31,5.82,1.33,8.76,0,3.85-1.4,7.44-3.63,10.61-.79,1.1-1.17,2.79-3.05,2.79Z"/></g></svg>