<?xml version="1.0" encoding="UTF-8"?><svg id="Layer_2" xmlns="http://www.w3.org/2000/svg" viewBox="0 0 1047.04 563.19"><defs><style>.cls-1{fill:#020204;stroke-width:0px;}</style></defs><g id="Layer_1-2"><path class="cls-1" d="m128.44,74.72c.54-2.17.96-4.36,1.39-6.56,2.06-10.62,8.34-18.91,14.86-27.08,4.63-5.78,9.07-11.76,13.59-17.66l2.26-1.11c.7.23,1.46.26,2.18.07.72-.19,1.36-.59,1.86-1.14,4.3-.49,8.64-.37,12.91.36.35.45.86.76,1.43.86.57.1,1.15,0,1.64-.31l2.49.64c4.68,2.27,9.19,4.99,14.45,5.83l6.51,2.8c.35.69.9,1.25,1.57,1.61.68.36,1.46.5,2.22.4.33.13.66.29.97.47.26.73.76,1.35,1.43,1.76.66.41,1.44.58,2.21.48l4.63,4.62c1.11,6.03,1.65,12.16,1.61,18.29-.04,2.2.25,4.4.85,6.52,1.21,3.73,2.05,7.56,2.51,11.46.16,1.6.29,3.39,1.28,4.69.14,1.37.4,2.73.59,4.11.51,3.63-.08,7.34-.64,10.91-.29,1.93-.58,3.85-.8,5.83l-6.98,33.23c-.64.02-1.27.21-1.81.56-.54.35-.98.84-1.27,1.41-2.02,4.49-3.77,9.05-6.36,13.25-.31.54-.49,1.15-.52,1.77-.03.62.09,1.24.35,1.81,1.11,2.76,3.24,5,5.95,6.23.58.25,1.22.34,1.84.24.62-.1,1.2-.38,1.67-.81,1.2.38,2.43.67,3.66.88,1.52,1.5,3.85,2.77,5.34,3.65,6.19,3.66,12.28,7.46,18.99,10.23,6.19,2.57,12.3,5.36,18.21,8.5,9.87,5.24,19.7,10.63,26.85,19.63,2.16,2.71,4.38,5.4,6.49,8.14,1.51,1.96,2.86,4.07,4.39,6.02,1.87,2.36,3.68,1.99,4.87-.94.48-1.15.86-2.33,1.14-3.54.94-4.42,2.89-8.44,4.79-12.49,5.44-11.6,14.96-18.25,26.8-21.99,2.32-.74,4.89-.7,7.33-1.09,1.12-.18,1.93-1.11,1.61-2.09-1.14-3.79-1.86-7.91-3.93-11.15-2.39-3.74-5.71-6.81-5.29-11.78.06-.64-.59-1.34-.94-1.99-1.35-2.66-3.08-5.11-5.13-7.28-4.31-4.45-6.67-9.75-6.62-16.09,0-2.98-.26-5.97.52-8.88.37-1.19.45-2.45.22-3.67-.22-1.22-.74-2.38-1.51-3.36-.92-1.17-1.6-2.51-1.98-3.95-.58-2.94-2-5.64-4.08-7.8-1.86-1.88-2.37-4.22-2.34-6.83.05-5.21-.04-10.43-.11-15.64.02-3.48-.66-6.93-2-10.14-2.2-5.13-1.83-10.2,1.82-14.7,1.58-1.96,2.15-3.77.43-6.01-1.19-1.55-.58-3.38.08-4.98,1.33-3.21,2.79-6.37,4.22-9.53,3.26-7.22,9.37-11,16.69-12.19,3.91-.51,7.57-2.19,10.51-4.82,6.2-5.38,13.31-9.62,20.99-12.53,2.79-1.07,5.73-1.68,8.71-1.82,2.8-.15,5.64.19,7.75,2.06,4.05,3.6,9.1,4.9,13.93,6.78,3.28,1.28,6.69,1.89,10.08,2.61,3.53.76,6.54,2.24,8.5,5.46.71,1.02,1.5,1.98,2.35,2.88.03.15.1.3.19.43.09.13.21.24.34.32.13.08.28.14.44.17.16.03.32.02.47-.02l3.23,2.42c.08.14.18.26.31.36.13.1.27.17.43.2.16.04.32.04.48.01.16-.03.31-.09.44-.18l1.57.04c2.75,1.06,4.71-.94,6.9-1.89,5.1-2.21,10.31-3.55,15.92-2.98,2,.21,3.97.5,5.46,2.03,2,2.05,4.58,2.85,7.26,3.52,1.67.43,3.51.74,4.92,1.65,4.96,3.21,10.51,4.27,16.19,5.05l1.35,1.55c.72,2.54,2.33,3.95,5.02,4.01l2.84,3.01c-.02.77.21,1.53.64,2.17.43.64,1.06,1.13,1.78,1.4,2.82,3.17,5.87,6.15,8.05,9.84,1.32,4.49,4.75,7.11,8.47,9.47.23.27.42.57.58.89.27,1.2.64,2.39.79,3.61.25,1.68-.46,2.4-2.03,2.08-.95-.19-1.85-.74-2.8-.81-.19,0-.37.04-.54.12-.17.08-.31.2-.43.35-.11.15-.19.32-.22.51-.03.18-.02.37.03.55.49,2.64,2,4.65,4.59,5.31,1.97.51,3.79,1.06,5.2,2.57.17.81.34,1.63.51,2.44-.87,2.27.53,3.97,1.93,5.13,4.49,3.82,7.7,8.69,11.36,13.23.45,1.17.89,2.34,1.34,3.51-.14.75-.06,1.52.23,2.22.29.7.78,1.3,1.41,1.72l2.5,5.14c.12.98.12,1.97,0,2.95-.81,3.14-.27,5.85,2.2,8.07,1.92,1.74,2.46,4.12,3.21,6.5,1.19,3.7,2.14,7.64,5.62,10.12l1.02,2.14c.92,3.68,2.19,7.16,5.42,9.52,1.03,2.93,2.05,5.85,3.07,8.79-.16.31-.21.66-.12,1,.09.34.29.63.58.82l.92,4.11c-.76,2.25-.78,4.44.57,6.51.76,3.72.5,7.43,0,11.15-.43.49-.66,1.13-.64,1.79.02.66.28,1.28.73,1.75,1.86,3.54,2.4,7.62,1.53,11.53-1.36,6.96-.69,7.78,5.95,10.66.91.39,1.83.77,2.77,1.1,3.73,1.35,7.67,2.29,11.17,4.07,10.37,5.29,21.22,9.72,30.81,16.46,1.62,1.14,3.31,2.19,5,3.21,1.53.93,3.15,1.41,4.97.86.94-.31,1.92-.49,2.91-.51,3.79,0,5.6,1.42,6.39,5.49.57,2.95,2.01,5.23,4.49,6.48,4.2,2.12,7.06,5.47,9.31,9.34,2.04,3.5,5.42,5.78,7.7,8.99.19.24.45.42.74.52.29.1.61.11.91.04.3-.07.57-.23.79-.45.22-.22.36-.5.43-.8.33-1.69.51-3.41.56-5.14,0-8.7.82-17.33,1.71-25.98.44-5.21,2.21-10.21,5.14-14.54,3.09-4.49,6.42-8.83,9.57-13.29,2.87-4.05,6.35-7.64,10.32-10.63,2.75-2.09,5.78-4.22,7.6-7.03,2.73-4.21,6.52-4.96,10.84-5.13,2.22-.08,4.63.53,6.64-.12,3.79-1.15,7.77-1.58,11.72-1.28,2.89.14,4.37-1.39,3.88-4.11-.79-3.91-.51-7.96.81-11.72.45-1.44.35-2.99-.26-4.36-1.84-4.91.14-9.26,2.86-12.97,1.71-2.33,3.34-4.18,2.53-7.22-.9-3.38.99-5.1,3.82-6.2l2.99.45c.98,9.84,1.97,19.69,2.96,29.56.11,1.48.36,2.94.74,4.37.18.73.57,1.4,1.12,1.91.56.51,1.25.84,2,.95,4.18.41,8.39.94,12.38-1.11,3.21-1.63,4.15-3.29,2.89-6.53-.86-2.04-1.35-4.22-1.44-6.44-.08-4.06-1.66-7.27-5.46-8.99-3.11-1.39-4.43-3.62-4.49-6.96-.16-2.22-.48-4.44-.95-6.62-.37-2.23-.9-4.44-3.13-5.62-2.22-1.17-4.32-.55-6.32.67l-1.8.1c-.49-2.62-.18-5.01,2.27-6.57,2.57-1.66,2.57-4.02,1.92-6.57-.27-.95-.61-1.88-1.03-2.79-2.82-6.61-5.78-13.17-8.47-19.84-4.89-12.15-6.56-24.43-.96-36.88.39-.91.7-1.86.91-2.83,2.1-8.7,6.94-15.96,12.63-22.53,5.51-6.37,11.67-12.19,17.97-17.82,5.51-4.95,11.83-8.07,18.88-10,4.16-1.14,8.34-1.46,12.5-.23,2.88.75,5.86,1.07,8.84.94,2.98,0,5.96,0,8.93.21,9.7.76,18.53,4.18,25.76,10.56,12.53,11.1,23.44,23.62,30.73,38.89,3.21,6.74,6,13.63,6.86,21.13.99,8.63,1.61,17.29,1.85,25.98.16,5.54-.58,10.91-2.86,15.99-1.96,4.36-2.85,8.99-3.58,13.64-.77,4.93-.56,9.92-.4,14.87.11,3.66-.73,6.88-3.46,9.46-.19.16-.36.34-.53.53-2.31,2.8-2.12,3.79,1.12,5.61,3.24,1.82,6.72,3.38,10.48,3.62,7.49.49,14.68,2.44,21.92,4.13,1.92.46,3.85,1.08,5.87.68,3.03-.61,5.94.04,8.86.6,5.13.98,10.27,1.66,15.27,3.3,2.36.77,3.93-.06,4.74-2.34,1.14-3.28,2.05-6.64,2.96-9.99,4.25-15.56,8.25-31.19,12.75-46.68,4.15-14.29,8.68-28.48,13.3-42.63,2.21-7.13,5.47-13.89,9.68-20.06,5.59-7.96,12.89-14.57,21.36-19.34,13.26-7.52,27.14-8.99,41.44-2.77l15.03,6.53c-.11,2.23-.31,4.45-.31,6.67v513.76c0,2.23.15,4.45.22,6.69h-372.79c-.43-5.19-.84-10.38-1.24-15.57-.34-4.71.05-9.45,1.16-14.05,2.2-9.42,4.25-18.89,6.32-28.34.37-1.7.65-3.41.83-5.14.39-3.36-.28-6.42-2.88-8.83-.54-.5-.96-1.14-1.49-1.66-2.84-2.73-3.68-7.57-7.53-8.89-3.53-1.13-6.99-2.44-10.38-3.93-2.57-1.18-4.83-.89-6.71,1.28-3.06,3.54-6.6,6.73-6.79,12.01-.1,2.77-1.64,5.29-3.38,7.36-5.93,7-11.26,14.52-18.32,20.54-4.69,4.08-9.95,7.46-15.6,10.04-1.82.82-3.57,1.79-5.44,2.43-4.7,1.6-6.42,4.7-6.15,9.67.35,7.7.08,15.4.08,23.1H47.84c.82-11.42.08-22.84-.58-34.2-1.79-30.61-1.15-61.06,4.49-91.28.13-10.67.3-21.33.35-32,0-2.18-1.35-3.69-3.4-4.45-1.62-.64-3.25-1.23-4.93-1.68-5.28-1.41-10.56-2.77-15.87-4.09-6.28-1.56-10.71-5.37-12.8-11.39-3-8.66-6.42-17.33-6.11-26.71.16-5.35-.69-9.87-6.18-12.26-.65-.37-1.22-.87-1.67-1.47-.52-.54-.88-1.21-1.05-1.94-.17-.73-.14-1.49.08-2.21.28-.95.64-1.88,1.06-2.77,2.57-5.69,4.07-11.69,5.09-17.85.43-3.2,1.25-6.33,2.45-9.32,2.43-5.52,3.77-11.29,5.01-17.11,1.09-5.14,2.12-10.21,3.25-15.3,3.03-13.56,6.11-27.12,9.15-40.68.87-3.88,1.61-7.84,3.51-11.35,4.72-8.73,9.47-17.46,14.54-25.99,4.08-6.88,10.13-12.38,17.38-15.77,7.35-3.56,14.45-7.65,21.89-11.12,7.19-3.34,14.05-7.39,21.69-9.73,1.44-.4,2.79-1.07,3.97-1.98,1.89-1.62,4.08-2.85,6.46-3.6s4.88-1,7.36-.74c3.7.33,6.8-1.15,9.67-3.25,2.87-2.11,3.33-3.59,2.38-7.06-1.07-3.85-2.51-7.57-3.21-11.46m549.72,284.17c-3.21,5.52-3.76,6.91-3.21,11.96l.19-.19c3.34-3.24,3.9-7.28,3.02-11.77Zm-4.36,45.38c-.51-3.06,0-5.92.29-8.87.02-.99.21-1.98.56-2.91,2.45-4.91,1.56-9.72-.45-14.41-.26-.55-.47-1.11-.64-1.69-4.77,5.38-8.98,11.08-10.09,18.52-.28,1.93-1.36,3.71-2.06,5.56-.3.69-.35,1.46-.13,2.18.22.72.7,1.33,1.33,1.73,1.92,1.45,4.38,2.37,5.38,4.86,5.22.94,6.63-.08,5.8-4.97Zm-14.69,7.39c1.18.88,2.44,1.66,3.76,2.34,2.02.98,4.58.68,4.73-2.57.08-.71.21-1.41.39-2.11-2.7.91-5.33-.55-8.02-.22-.36,0-.72.12-1,.36-.28.24-.46.56-.52.92.01.25.08.49.19.71.11.22.28.41.47.56Zm-330.14-173.93c-2.82-4.49-3.96-9.57-5.78-14.42-1.03-2.77-2.14-5.53-3.27-8.27-.25-.7-.64-1.34-1.16-1.87-.52-.53-1.15-.95-1.84-1.21-1-.36-2.03-.37-2.74.39-.43.45-.47,1.28-.64,1.99-.04.25,0,.5.12.73,4.09,9.45,4.27,19.74,6.42,29.61.73,3.36,1.74,6.67,2.71,9.98.11.39.75.97,1.03.91.64-.13,1.57-.47,1.75-.97,1.61-4.39,3.09-8.83,4.6-13.26-.42-1.35-.57-2.64-1.19-3.63v.03Zm10.13,82.35c.44.24.96.31,1.45.19.49-.12.92-.42,1.2-.83,2.79-4.02,6.07-7.81,6.96-12.87.9-1.15,1.62-2.38,1.53-3.89-.12-1.76-.73-3.26-2.51-3.96-1.07-.42-1.88,1.34-1.75,3.89.07.71.19,1.42.35,2.11-.73,3.16-2.55,5.96-5.13,7.92-1.57,1.24-2.93,2.71-3.13,4.86-.08.99.1,2.07,1.05,2.58Zm-64.31,25.52c2.09,6.62,3.49,13.45,4.18,20.36.15,1.48.46,2.95.95,4.36,3.91,11.37,5.13,23.23,6.21,35.08,1.16,12.87,3.77,25.5,5.93,38.21.13.73.38,1.43.74,2.08.2.47.58.84,1.06,1.03s1,.18,1.47-.02c3.4-1.57,6.29-4.06,8.34-7.19.64-.9.57-2.39.55-3.6-.05-2.47-.29-4.94-.46-7.41-.68-8.87,2.53-17.14,3.85-25.67.41-2.69.93-5.36,1.39-8.05.25-1.46.27-3,.75-4.39,4.3-12.37,7.28-25.21,13.03-37.1,2.36-4.9,4.02-10.14,6.26-15.11,2.47-5.47,3.81-11.24,5.03-17.07.81-3.85,1.45-7.76,2.73-11.55,1.52-4.49.98-9.34.86-14.04-.06-2.48-.52-4.94,0-7.41,1.24-5.95-.94-11.26-3.21-16.5-1-2.27-3-2.91-5.62-2.19-2.03.55-3.1,2-2.87,4.56.28,2.46.71,4.91,1.28,7.32.64,2.82-.33,4.85-2.8,6.22-1.05.66-2.15,1.24-3.29,1.73-3.6,1.32-4.7,4.02-4.66,7.61.04,3.21-.14,6.42-.33,9.67-.64,11.55-6.94,19.9-15.5,26.81-2.57,2.06-5.66,2.99-8.86,3.68-4.61.98-9.22,1.97-13.77,3.21-3.44.83-4.26,2.25-3.25,5.38Z"/></g></svg>