<svg width="723" height="1067" viewBox="0 0 723 1067" fill="none" xmlns="http://www.w3.org/2000/svg">
<path d="M535.183 547.032C539.105 546.688 541.219 553.948 535.183 557.738C529.852 561.777 517.388 558.842 513.831 547.032C509.598 535.878 517.733 518.427 535.183 514.919C551.935 510.552 574.611 523.748 577.885 547.032C582.439 569.548 564.037 597.444 535.183 600.562C507.017 605.273 474.095 581.699 471.124 547.032C466.205 513.08 494.96 474.91 535.183 472.095C574.711 467.077 618.004 500.929 620.588 547.032C625.794 592.488 586.831 640.857 535.183 643.385C484.162 648.748 430.802 604.601 428.422 547.032C422.996 490.244 472.043 431.414 535.183 429.272C597.629 423.601 661.218 478.027 663.291 547.032C669.087 615.286 609.707 684.374 535.183 686.209C461.365 692.161 387.427 627.478 385.719 547.032C379.62 467.342 449.245 387.98 535.183 386.448C620.405 380.11 704.589 455.192 705.993 547.032C712.4 638.121 632.525 727.866 535.183 729.028C438.551 735.657 344.117 650.338 343.016 547.032C336.306 444.424 426.452 344.567 535.183 343.629C643.198 336.776 747.965 432.207 748.696 547.032C755.772 661.086 655.297 771.22 535.183 771.851C415.775 779.008 300.741 673.298 300.314 547.032C292.933 421.563 403.655 301.09 535.183 300.805C665.995 293.24 791.278 409.429 791.399 547.032C799.085 683.942 678.115 814.716 535.183 814.675C392.981 822.504 257.367 696.159 257.611 547.032C249.558 398.686 380.879 257.656 535.183 257.983C688.872 249.826 834.571 386.531 834.102 547.032C842.378 706.803 700.991 858.192 535.183 857.498C370.064 866 214.156 718.999 214.908 547.032C206.347 375.826 357.965 214.161 535.183 215.16C711.665 206.33 877.943 363.692 876.804 547.032C885.733 729.742 723.784 901.604 535.183 900.318C347.287 909.434 170.761 741.876 172.205 547.032C162.973 352.928 335.168 170.686 535.183 172.338C734.483 162.856 921.256 340.794 919.507 547.032C929.046 752.665 746.602 945.017 535.183 943.141C324.511 952.847 127.387 764.815 129.502 547.032C119.579 329.943 312.393 127.354 535.183 129.515C757.276 119.503 964.611 317.811 962.21 547.032C972.439 775.521 769.374 988.513 535.183 985.965C301.677 996.322 84.0948 787.676 86.7991 547.032C76.2859 307.106 289.578 83.8584 535.183 86.6928C780.052 76.0073 1007.98 294.973 1004.91 547.032C1015.81 798.402 792.151 1031.95 535.183 1028.79C278.821 1039.78 40.8017 810.536 44.096 547.032C32.9932 284.328 266.701 40.3222 535.183 43.8702C802.97 32.5325 1051.22 272.114 1047.62 547.032C1059.02 821.242 815.069 1075.44 535.183 1071.61C256.025 1083.27 -2.572 833.392 1.39331 547.032C-10.3809 261.388 243.906 -3.09159 535.183 1.04796" stroke="url(#paint0_linear_348_1866)" stroke-opacity="0.5" stroke-width="0.5" stroke-linecap="round"/>
<defs>
<linearGradient id="paint0_linear_348_1866" x1="-66.6848" y1="536.454" x2="1048" y2="536.454" gradientUnits="userSpaceOnUse">
<stop stop-color="#D9D9D9"/>
<stop offset="1" stop-color="#67FCE6"/>
</linearGradient>
</defs>
</svg>
