<?xml version="1.0" encoding="UTF-8"?><svg id="Layer_2" xmlns="http://www.w3.org/2000/svg" viewBox="0 0 62.86 44"><defs><style>.cls-1{fill:#fff;stroke-width:0px;}</style></defs><g id="Layer_1-2"><path class="cls-1" d="m61.55,6.87c-.72-2.7-2.85-4.83-5.56-5.56-4.9-1.31-24.56-1.31-24.56-1.31,0,0-19.65,0-24.56,1.31-2.7.72-4.83,2.85-5.56,5.56-1.31,4.9-1.31,15.13-1.31,15.13,0,0,0,10.23,1.31,15.13.72,2.7,2.85,4.83,5.56,5.56,4.91,1.31,24.56,1.31,24.56,1.31,0,0,19.66,0,24.56-1.31,2.7-.72,4.83-2.85,5.56-5.56,1.31-4.9,1.31-15.13,1.31-15.13,0,0,0-10.23-1.31-15.13ZM25.15,31.43V12.57l16.33,9.43-16.33,9.43Z"/></g></svg>