<svg width="749" height="1080" viewBox="0 0 749 1080" fill="none" xmlns="http://www.w3.org/2000/svg">
<path d="M225.918 -170.694C-62.3293 -170.694 -296 -130.908 -296 -81.8285C-296 -32.7495 -62.3293 7.03704 225.918 7.03706C514.165 7.03709 747.836 -32.7494 747.836 -81.8284C747.836 -130.907 514.165 -170.694 225.918 -170.694Z" stroke="#373535" stroke-miterlimit="10"/>
<path d="M225.918 -170.694C-62.3293 -170.694 -296 -130.908 -296 -81.8285C-296 -32.7495 -62.3293 7.03704 225.918 7.03706C514.165 7.03709 747.836 -32.7494 747.836 -81.8284C747.836 -130.907 514.165 -170.694 225.918 -170.694Z" stroke="url(#paint0_linear_345_1841)" stroke-opacity="0.45" stroke-miterlimit="10"/>
<path d="M-284.689 -63.4332C-284.689 -63.4332 -117.101 40.6948 37.6479 193.321C230.392 383.818 226.008 539.439 226.008 539.439" stroke="#373535" stroke-miterlimit="10"/>
<path d="M-284.689 -63.4332C-284.689 -63.4332 -117.101 40.6948 37.6479 193.321C230.392 383.818 226.008 539.439 226.008 539.439" stroke="url(#paint1_linear_345_1841)" stroke-opacity="0.45" stroke-miterlimit="10"/>
<path d="M736.352 -63.4331C736.352 -63.4331 568.765 40.6948 414.016 193.321C221.324 383.818 225.656 539.439 225.656 539.439" stroke="#373535" stroke-miterlimit="10"/>
<path d="M736.352 -63.4331C736.352 -63.4331 568.765 40.6948 414.016 193.321C221.324 383.818 225.656 539.439 225.656 539.439" stroke="url(#paint2_linear_345_1841)" stroke-opacity="0.45" stroke-miterlimit="10"/>
<path d="M225.898 -173.41L225.898 544.788" stroke="#373535" stroke-miterlimit="10"/>
<path d="M225.898 -173.41L225.898 544.788" stroke="url(#paint3_linear_345_1841)" stroke-opacity="0.45" stroke-miterlimit="10"/>
<path d="M225.654 499.067C225.654 499.067 203.838 338.667 86.8242 157.513C-48.0394 -51.1707 -177.162 -138.324 -177.162 -138.324" stroke="#373535" stroke-miterlimit="10"/>
<path d="M225.654 499.067C225.654 499.067 203.838 338.667 86.8242 157.513C-48.0394 -51.1707 -177.162 -138.324 -177.162 -138.324" stroke="url(#paint4_linear_345_1841)" stroke-opacity="0.45" stroke-miterlimit="10"/>
<path d="M18.0436 -163.355C87.4656 -75.2678 139.521 35.309 169.4 158.158C196.331 271.558 224.984 478.316 224.984 478.316" stroke="#373535" stroke-miterlimit="10"/>
<path d="M18.0436 -163.355C87.4656 -75.2678 139.521 35.309 169.4 158.158C196.331 271.558 224.984 478.316 224.984 478.316" stroke="url(#paint5_linear_345_1841)" stroke-opacity="0.45" stroke-miterlimit="10"/>
<path d="M227.233 499.067C227.233 499.067 249.101 338.667 366.115 157.513C500.927 -51.1707 630.049 -138.324 630.049 -138.324" stroke="#373535" stroke-miterlimit="10"/>
<path d="M227.233 499.067C227.233 499.067 249.101 338.667 366.115 157.513C500.927 -51.1707 630.049 -138.324 630.049 -138.324" stroke="url(#paint6_linear_345_1841)" stroke-opacity="0.45" stroke-miterlimit="10"/>
<path d="M434.724 -163.355C365.285 -75.2877 313.226 35.2956 283.368 158.158C256.437 271.558 227.732 478.316 227.732 478.316" stroke="#373535" stroke-miterlimit="10"/>
<path d="M434.724 -163.355C365.285 -75.2877 313.226 35.2956 283.368 158.158C256.437 271.558 227.732 478.316 227.732 478.316" stroke="url(#paint7_linear_345_1841)" stroke-opacity="0.45" stroke-miterlimit="10"/>
<path d="M225.918 1072.55C-62.3293 1072.55 -296 1112.34 -296 1161.42C-296 1210.5 -62.3293 1250.29 225.918 1250.29C514.165 1250.29 747.836 1210.5 747.836 1161.42C747.836 1112.34 514.165 1072.55 225.918 1072.55Z" stroke="#373535" stroke-miterlimit="10"/>
<path d="M225.918 1072.55C-62.3293 1072.55 -296 1112.34 -296 1161.42C-296 1210.5 -62.3293 1250.29 225.918 1250.29C514.165 1250.29 747.836 1210.5 747.836 1161.42C747.836 1112.34 514.165 1072.55 225.918 1072.55Z" stroke="url(#paint8_linear_345_1841)" stroke-opacity="0.45" stroke-miterlimit="10"/>
<path d="M225.917 948.384C114.54 948.384 24.2482 929.627 24.2482 906.591C24.2482 883.554 114.54 864.725 225.917 864.725C337.295 864.725 427.587 883.483 427.587 906.591C427.587 929.698 337.295 948.384 225.917 948.384Z" stroke="#373535" stroke-miterlimit="10"/>
<path d="M225.917 948.384C114.54 948.384 24.2482 929.627 24.2482 906.591C24.2482 883.554 114.54 864.725 225.917 864.725C337.295 864.725 427.587 883.483 427.587 906.591C427.587 929.698 337.295 948.384 225.917 948.384Z" stroke="url(#paint9_linear_345_1841)" stroke-opacity="0.45" stroke-miterlimit="10"/>
<path d="M225.917 130.35C114.539 130.35 24.2482 149.062 24.2482 172.144C24.2482 195.226 114.539 213.937 225.917 213.937C337.296 213.937 427.587 195.226 427.587 172.144C427.587 149.062 337.296 130.35 225.917 130.35Z" stroke="#373535" stroke-miterlimit="10"/>
<path d="M225.917 130.35C114.539 130.35 24.2482 149.062 24.2482 172.144C24.2482 195.226 114.539 213.937 225.917 213.937C337.296 213.937 427.587 195.226 427.587 172.144C427.587 149.062 337.296 130.35 225.917 130.35Z" stroke="url(#paint10_linear_345_1841)" stroke-opacity="0.45" stroke-miterlimit="10"/>
<path d="M736.621 1143.03C736.621 1143.03 569.033 1038.97 414.285 886.273C221.54 695.847 225.924 540.154 225.924 540.154" stroke="#373535" stroke-miterlimit="10"/>
<path d="M736.621 1143.03C736.621 1143.03 569.033 1038.97 414.285 886.273C221.54 695.847 225.924 540.154 225.924 540.154" stroke="url(#paint11_linear_345_1841)" stroke-opacity="0.45" stroke-miterlimit="10"/>
<path d="M-284.689 1143.03C-284.689 1143.03 -117.101 1038.97 37.6478 886.273C230.392 695.847 226.008 540.154 226.008 540.154" stroke="#373535" stroke-miterlimit="10"/>
<path d="M-284.689 1143.03C-284.689 1143.03 -117.101 1038.97 37.6478 886.273C230.392 695.847 226.008 540.154 226.008 540.154" stroke="url(#paint12_linear_345_1841)" stroke-opacity="0.45" stroke-miterlimit="10"/>
<path d="M225.898 1253L225.898 534.874" stroke="#373535" stroke-miterlimit="10"/>
<path d="M225.898 1253L225.898 534.874" stroke="url(#paint13_linear_345_1841)" stroke-opacity="0.45" stroke-miterlimit="10"/>
<path d="M226.19 580.514C226.19 580.514 248.059 740.985 365.073 922.068C499.884 1130.75 629.007 1217.91 629.007 1217.91" stroke="#373535" stroke-miterlimit="10"/>
<path d="M226.19 580.514C226.19 580.514 248.059 740.985 365.073 922.068C499.884 1130.75 629.007 1217.91 629.007 1217.91" stroke="url(#paint14_linear_345_1841)" stroke-opacity="0.45" stroke-miterlimit="10"/>
<path d="M433.692 1243.02C364.27 1154.93 312.215 1044.35 282.336 921.505C255.405 808.034 226.752 601.276 226.752 601.276" stroke="#373535" stroke-miterlimit="10"/>
<path d="M433.692 1243.02C364.27 1154.93 312.215 1044.35 282.336 921.505C255.405 808.034 226.752 601.276 226.752 601.276" stroke="url(#paint15_linear_345_1841)" stroke-opacity="0.45" stroke-miterlimit="10"/>
<path d="M224.612 580.514C224.612 580.514 202.743 740.985 85.7293 922.068C-49.0821 1130.75 -178.204 1217.91 -178.204 1217.91" stroke="#373535" stroke-miterlimit="10"/>
<path d="M224.612 580.514C224.612 580.514 202.743 740.985 85.7293 922.068C-49.0821 1130.75 -178.204 1217.91 -178.204 1217.91" stroke="url(#paint16_linear_345_1841)" stroke-opacity="0.45" stroke-miterlimit="10"/>
<path d="M17.1084 1243.02C86.5304 1154.93 138.586 1044.35 168.465 921.505C195.396 808.034 224.049 601.276 224.049 601.276" stroke="#373535" stroke-miterlimit="10"/>
<path d="M17.1084 1243.02C86.5304 1154.93 138.586 1044.35 168.465 921.505C195.396 808.034 224.049 601.276 224.049 601.276" stroke="url(#paint17_linear_345_1841)" stroke-opacity="0.45" stroke-miterlimit="10"/>
<defs>
<linearGradient id="paint0_linear_345_1841" x1="613.83" y1="53.2711" x2="569.029" y2="-253.707" gradientUnits="userSpaceOnUse">
<stop offset="0.163862" stop-color="#75F4F3"/>
<stop offset="0.239583" stop-color="#E1ECB0"/>
<stop offset="0.53125" stop-color="#72F8EE"/>
<stop offset="0.838542" stop-color="#82B3F2"/>
</linearGradient>
<linearGradient id="paint1_linear_345_1841" x1="160.453" y1="696.268" x2="-371.243" y2="170.79" gradientUnits="userSpaceOnUse">
<stop offset="0.163862" stop-color="#75F4F3"/>
<stop offset="0.239583" stop-color="#E1ECB0"/>
<stop offset="0.53125" stop-color="#72F8EE"/>
<stop offset="0.838542" stop-color="#82B3F2"/>
</linearGradient>
<linearGradient id="paint2_linear_345_1841" x1="670.789" y1="696.268" x2="139.093" y2="170.79" gradientUnits="userSpaceOnUse">
<stop offset="0.163862" stop-color="#75F4F3"/>
<stop offset="0.239583" stop-color="#E1ECB0"/>
<stop offset="0.53125" stop-color="#72F8EE"/>
<stop offset="0.838542" stop-color="#82B3F2"/>
</linearGradient>
<linearGradient id="paint3_linear_345_1841" x1="225.77" y1="731.617" x2="223.712" y2="731.613" gradientUnits="userSpaceOnUse">
<stop offset="0.163862" stop-color="#75F4F3"/>
<stop offset="0.239583" stop-color="#E1ECB0"/>
<stop offset="0.53125" stop-color="#72F8EE"/>
<stop offset="0.838542" stop-color="#82B3F2"/>
</linearGradient>
<linearGradient id="paint4_linear_345_1841" x1="173.941" y1="664.875" x2="-363.105" y2="268.908" gradientUnits="userSpaceOnUse">
<stop offset="0.163862" stop-color="#75F4F3"/>
<stop offset="0.239583" stop-color="#E1ECB0"/>
<stop offset="0.53125" stop-color="#72F8EE"/>
<stop offset="0.838542" stop-color="#82B3F2"/>
</linearGradient>
<linearGradient id="paint5_linear_345_1841" x1="198.417" y1="645.237" x2="-174.651" y2="504.869" gradientUnits="userSpaceOnUse">
<stop offset="0.163862" stop-color="#75F4F3"/>
<stop offset="0.239583" stop-color="#E1ECB0"/>
<stop offset="0.53125" stop-color="#72F8EE"/>
<stop offset="0.838542" stop-color="#82B3F2"/>
</linearGradient>
<linearGradient id="paint6_linear_345_1841" x1="578.336" y1="664.875" x2="41.2905" y2="268.908" gradientUnits="userSpaceOnUse">
<stop offset="0.163862" stop-color="#75F4F3"/>
<stop offset="0.239583" stop-color="#E1ECB0"/>
<stop offset="0.53125" stop-color="#72F8EE"/>
<stop offset="0.838542" stop-color="#82B3F2"/>
</linearGradient>
<linearGradient id="paint7_linear_345_1841" x1="408.151" y1="645.237" x2="35.0115" y2="504.807" gradientUnits="userSpaceOnUse">
<stop offset="0.163862" stop-color="#75F4F3"/>
<stop offset="0.239583" stop-color="#E1ECB0"/>
<stop offset="0.53125" stop-color="#72F8EE"/>
<stop offset="0.838542" stop-color="#82B3F2"/>
</linearGradient>
<linearGradient id="paint8_linear_345_1841" x1="613.83" y1="1296.52" x2="569.029" y2="989.542" gradientUnits="userSpaceOnUse">
<stop offset="0.163862" stop-color="#75F4F3"/>
<stop offset="0.239583" stop-color="#E1ECB0"/>
<stop offset="0.53125" stop-color="#72F8EE"/>
<stop offset="0.838542" stop-color="#82B3F2"/>
</linearGradient>
<linearGradient id="paint9_linear_345_1841" x1="375.807" y1="970.147" x2="350.374" y2="827.095" gradientUnits="userSpaceOnUse">
<stop offset="0.163862" stop-color="#75F4F3"/>
<stop offset="0.239583" stop-color="#E1ECB0"/>
<stop offset="0.53125" stop-color="#72F8EE"/>
<stop offset="0.838542" stop-color="#82B3F2"/>
</linearGradient>
<linearGradient id="paint10_linear_345_1841" x1="375.807" y1="235.682" x2="350.416" y2="92.7432" gradientUnits="userSpaceOnUse">
<stop offset="0.163862" stop-color="#75F4F3"/>
<stop offset="0.239583" stop-color="#E1ECB0"/>
<stop offset="0.53125" stop-color="#72F8EE"/>
<stop offset="0.838542" stop-color="#82B3F2"/>
</linearGradient>
<linearGradient id="paint11_linear_345_1841" x1="671.058" y1="1299.86" x2="139.362" y2="774.377" gradientUnits="userSpaceOnUse">
<stop offset="0.163862" stop-color="#75F4F3"/>
<stop offset="0.239583" stop-color="#E1ECB0"/>
<stop offset="0.53125" stop-color="#72F8EE"/>
<stop offset="0.838542" stop-color="#82B3F2"/>
</linearGradient>
<linearGradient id="paint12_linear_345_1841" x1="160.453" y1="1299.86" x2="-371.243" y2="774.377" gradientUnits="userSpaceOnUse">
<stop offset="0.163862" stop-color="#75F4F3"/>
<stop offset="0.239583" stop-color="#E1ECB0"/>
<stop offset="0.53125" stop-color="#72F8EE"/>
<stop offset="0.838542" stop-color="#82B3F2"/>
</linearGradient>
<linearGradient id="paint13_linear_345_1841" x1="225.769" y1="1439.81" x2="223.711" y2="1439.81" gradientUnits="userSpaceOnUse">
<stop offset="0.163862" stop-color="#75F4F3"/>
<stop offset="0.239583" stop-color="#E1ECB0"/>
<stop offset="0.53125" stop-color="#72F8EE"/>
<stop offset="0.838542" stop-color="#82B3F2"/>
</linearGradient>
<linearGradient id="paint14_linear_345_1841" x1="577.294" y1="1383.71" x2="40.2479" y2="987.747" gradientUnits="userSpaceOnUse">
<stop offset="0.163862" stop-color="#75F4F3"/>
<stop offset="0.239583" stop-color="#E1ECB0"/>
<stop offset="0.53125" stop-color="#72F8EE"/>
<stop offset="0.838542" stop-color="#82B3F2"/>
</linearGradient>
<linearGradient id="paint15_linear_345_1841" x1="407.125" y1="1409.96" x2="34.0464" y2="1269.6" gradientUnits="userSpaceOnUse">
<stop offset="0.163862" stop-color="#75F4F3"/>
<stop offset="0.239583" stop-color="#E1ECB0"/>
<stop offset="0.53125" stop-color="#72F8EE"/>
<stop offset="0.838542" stop-color="#82B3F2"/>
</linearGradient>
<linearGradient id="paint16_linear_345_1841" x1="172.899" y1="1383.71" x2="-364.147" y2="987.747" gradientUnits="userSpaceOnUse">
<stop offset="0.163862" stop-color="#75F4F3"/>
<stop offset="0.239583" stop-color="#E1ECB0"/>
<stop offset="0.53125" stop-color="#72F8EE"/>
<stop offset="0.838542" stop-color="#82B3F2"/>
</linearGradient>
<linearGradient id="paint17_linear_345_1841" x1="197.482" y1="1409.96" x2="-175.597" y2="1269.6" gradientUnits="userSpaceOnUse">
<stop offset="0.163862" stop-color="#75F4F3"/>
<stop offset="0.239583" stop-color="#E1ECB0"/>
<stop offset="0.53125" stop-color="#72F8EE"/>
<stop offset="0.838542" stop-color="#82B3F2"/>
</linearGradient>
</defs>
</svg>
