<svg viewBox="0 0 1042 235" fill="none" xmlns="http://www.w3.org/2000/svg">
    <path d="M48.6296 2.748V9.756H28.2776V61.5H21.2696V9.756H1.01364V2.748H48.6296ZM104.547 2.844V61.5H97.5386V33.18H66.0506V61.5H59.1386V2.844H66.0506V26.748H97.5386V2.844H104.547ZM121.926 9.756V28.668H152.934V35.676H121.926V54.492H156.198V61.5H115.014V2.844H156.198V9.756H121.926ZM196.014 61.5V2.844H202.926V61.5H196.014ZM210.318 2.844L225.774 57.564H218.382L202.926 2.844H210.318ZM248.622 61.5V2.844H255.534V61.5H248.622ZM241.23 2.844H248.622L233.166 57.564H225.774L241.23 2.844ZM197.07 8.892V2.844H209.454V8.892H197.07ZM242.286 8.892V2.844H254.67V8.892H242.286ZM219.726 57.564V51.516H232.11V57.564H219.726ZM273.051 9.756V28.668H304.059V35.676H273.051V54.492H307.323V61.5H266.139V2.844H307.323V9.756H273.051ZM324.801 9.756V28.668H355.809V35.676H324.801V54.492H359.073V61.5H317.889V2.844H359.073V9.756H324.801ZM417.255 2.748V9.756H396.903V61.5H389.895V9.756H369.639V2.748H417.255ZM446.964 9.756V54.492H459.252V61.5H427.764V54.492H440.052V9.756H427.764V2.844H459.252V9.756H446.964ZM484.161 2.844L509.217 61.5H501.825L476.769 2.844H484.161ZM469.857 61.5V2.844H476.769V61.5H469.857ZM509.217 61.5V2.844H516.129V61.5H509.217ZM471.201 8.892V2.844H483.585V8.892H471.201ZM502.977 61.5V55.452H515.361V61.5H502.977ZM582.83 35.292C582.35 48.54 571.694 61.884 554.894 61.884C538.094 61.884 526.862 49.884 526.862 31.836C526.862 13.788 538.094 1.788 554.894 1.788C565.646 1.788 574.958 6.492 579.374 17.532L573.326 20.796C570.062 11.868 563.15 8.412 554.894 8.412C542.126 8.412 533.678 17.916 533.774 31.836C533.678 45.756 542.126 55.164 554.894 55.164C565.262 55.164 573.518 48.444 575.534 38.748H556.718V31.836H582.83V35.292ZM649.353 2.844C660.105 2.844 667.209 9.948 667.209 20.7C667.209 31.452 660.105 38.556 649.353 38.556H629.769V61.5H622.857V2.844H649.353ZM649.353 31.644C655.881 31.644 660.201 27.228 660.201 20.7C660.201 14.172 655.881 9.756 649.353 9.756H629.769V31.644H649.353ZM706.16 1.788C724.4 1.788 736.496 13.98 736.496 32.124C736.496 50.364 724.4 62.46 706.16 62.46C688.016 62.46 675.92 50.364 675.92 32.124C675.92 13.98 688.016 1.788 706.16 1.788ZM706.16 55.452C720.176 55.452 729.584 46.14 729.584 32.124C729.584 18.108 720.176 8.796 706.16 8.796C692.144 8.796 682.832 18.108 682.832 32.124C682.832 46.14 692.144 55.452 706.16 55.452ZM762.057 9.756V54.492H774.345V61.5H742.857V54.492H755.145V9.756H742.857V2.844H774.345V9.756H762.057ZM799.255 2.844L824.311 61.5H816.919L791.863 2.844H799.255ZM784.951 61.5V2.844H791.863V61.5H784.951ZM824.311 61.5V2.844H831.223V61.5H824.311ZM786.295 8.892V2.844H798.679V8.892H786.295ZM818.071 61.5V55.452H830.455V61.5H818.071ZM889.38 2.748V9.756H869.028V61.5H862.02V9.756H841.764V2.748H889.38ZM959.379 1.788C977.619 1.788 989.715 13.98 989.715 32.124C989.715 50.364 977.619 62.46 959.379 62.46C941.235 62.46 929.139 50.364 929.139 32.124C929.139 13.98 941.235 1.788 959.379 1.788ZM959.379 55.452C973.395 55.452 982.803 46.14 982.803 32.124C982.803 18.108 973.395 8.796 959.379 8.796C945.363 8.796 936.051 18.108 936.051 32.124C936.051 46.14 945.363 55.452 959.379 55.452ZM1007.21 9.756V28.764H1035.24V35.676H1007.21V61.5H1000.29V2.844H1040.13V9.756H1007.21ZM102.567 131.62C97.3826 141.124 86.7266 147.46 75.8786 147.46C57.7346 147.46 45.6386 135.364 45.6386 117.124C45.6386 98.98 57.7346 86.788 75.8786 86.788C86.7266 86.788 97.3826 93.124 102.567 102.628L96.4226 105.988C92.4866 98.692 84.2306 93.796 75.8786 93.796C61.8626 93.796 52.5506 103.108 52.5506 117.124C52.5506 131.14 61.8626 140.452 75.8786 140.452C84.2306 140.452 92.4866 135.652 96.4226 128.26L102.567 131.62ZM159.603 146.5H151.155L132.627 119.908H120.051V146.5H113.139V87.844H141.459C151.059 87.844 157.491 94.18 157.491 103.876C157.491 113.476 151.059 119.908 141.459 119.908H141.171L159.603 146.5ZM141.459 112.9C146.931 112.9 150.483 109.252 150.483 103.876C150.483 98.404 146.931 94.756 141.459 94.756H120.051V112.9H141.459ZM187.315 114.82L199.411 87.844H206.803L192.019 120.868H188.083V146.5H181.075V120.868H177.235L162.451 87.844H169.747L181.939 114.82H187.315ZM243.885 87.844C254.637 87.844 261.741 94.948 261.741 105.7C261.741 116.452 254.637 123.556 243.885 123.556H224.301V146.5H217.389V87.844H243.885ZM243.885 116.644C250.413 116.644 254.733 112.228 254.733 105.7C254.733 99.172 250.413 94.756 243.885 94.756H224.301V116.644H243.885ZM316.755 87.748V94.756H296.403V146.5H289.395V94.756H269.139V87.748H316.755ZM351.879 86.788C370.119 86.788 382.215 98.98 382.215 117.124C382.215 135.364 370.119 147.46 351.879 147.46C333.735 147.46 321.639 135.364 321.639 117.124C321.639 98.98 333.735 86.788 351.879 86.788ZM351.879 140.452C365.895 140.452 375.303 131.14 375.303 117.124C375.303 103.108 365.895 93.796 351.879 93.796C337.863 93.796 328.551 103.108 328.551 117.124C328.551 131.14 337.863 140.452 351.879 140.452ZM448.955 120.292C448.475 133.54 437.819 146.884 421.019 146.884C404.219 146.884 392.987 134.884 392.987 116.836C392.987 98.788 404.219 86.788 421.019 86.788C431.771 86.788 441.083 91.492 445.499 102.532L439.451 105.796C436.187 96.868 429.275 93.412 421.019 93.412C408.251 93.412 399.803 102.916 399.899 116.836C399.803 130.756 408.251 140.164 421.019 140.164C431.387 140.164 439.643 133.444 441.659 123.748H422.843V116.836H448.955V120.292ZM506.196 146.5H497.748L479.22 119.908H466.644V146.5H459.732V87.844H488.052C497.652 87.844 504.084 94.18 504.084 103.876C504.084 113.476 497.652 119.908 488.052 119.908H487.764L506.196 146.5ZM488.052 112.9C493.524 112.9 497.076 109.252 497.076 103.876C497.076 98.404 493.524 94.756 488.052 94.756H466.644V112.9H488.052ZM551.027 87.844L571.379 146.5H563.987L557.843 128.74H529.427L523.187 146.5H515.891L536.243 87.844H551.027ZM541.427 94.276L531.635 122.308H555.635L545.843 94.276H541.427ZM608.478 87.844C619.23 87.844 626.334 94.948 626.334 105.7C626.334 116.452 619.23 123.556 608.478 123.556H588.894V146.5H581.982V87.844H608.478ZM608.478 116.644C615.006 116.644 619.326 112.228 619.326 105.7C619.326 99.172 615.006 94.756 608.478 94.756H588.894V116.644H608.478ZM682.328 87.844V146.5H675.32V118.18H643.832V146.5H636.92V87.844H643.832V111.748H675.32V87.844H682.328ZM699.707 94.756V113.668H730.715V120.676H699.707V139.492H733.979V146.5H692.795V87.844H733.979V94.756H699.707ZM791.009 146.5H782.561L764.033 119.908H751.457V146.5H744.545V87.844H772.865C782.465 87.844 788.897 94.18 788.897 103.876C788.897 113.476 782.465 119.908 772.865 119.908H772.577L791.009 146.5ZM772.865 112.9C778.337 112.9 781.889 109.252 781.889 103.876C781.889 98.404 778.337 94.756 772.865 94.756H751.457V112.9H772.865ZM830.486 114.532C839.99 116.932 845.558 124.036 844.598 132.292C843.35 141.796 834.614 148.132 822.71 148.132C810.71 148.132 801.494 141.124 799.67 130.66L806.486 129.316C807.638 136.42 814.166 141.124 822.71 141.124C830.966 141.124 836.918 137.284 837.59 131.428C838.166 126.82 834.614 122.788 828.758 121.252L810.422 116.26C803.894 113.956 800.342 107.908 801.494 101.188C802.934 92.452 811.19 86.596 822.038 86.596C833.558 86.596 842.006 93.508 843.062 103.876L836.15 105.22C835.766 98.212 830.198 93.508 822.038 93.508C814.742 93.508 809.27 97.06 808.31 102.34C807.83 105.604 809.462 108.484 812.534 109.636L830.486 114.532ZM914.754 86.788C932.994 86.788 945.09 98.98 945.09 117.124C945.09 135.364 932.994 147.46 914.754 147.46C896.61 147.46 884.514 135.364 884.514 117.124C884.514 98.98 896.61 86.788 914.754 86.788ZM914.754 140.452C928.77 140.452 938.178 131.14 938.178 117.124C938.178 103.108 928.77 93.796 914.754 93.796C900.738 93.796 891.426 103.108 891.426 117.124C891.426 131.14 900.738 140.452 914.754 140.452ZM962.582 94.756V113.764H990.614V120.676H962.582V146.5H955.67V87.844H995.51V94.756H962.582ZM127.691 179.756V198.668H158.699V205.676H127.691V224.492H161.963V231.5H120.779V172.844H161.963V179.756H127.691ZM220.337 208.556C220.337 222.956 210.737 232.46 196.433 232.46C182.033 232.46 172.529 222.956 172.529 208.556V172.844H179.441V208.556C179.441 218.732 186.257 225.452 196.433 225.452C206.513 225.452 213.329 218.732 213.329 208.556V172.844H220.337V208.556ZM277.306 231.5H268.858L250.33 204.908H237.754V231.5H230.842V172.844H259.162C268.762 172.844 275.194 179.18 275.194 188.876C275.194 198.476 268.762 204.908 259.162 204.908H258.874L277.306 231.5ZM259.162 197.9C264.634 197.9 268.186 194.252 268.186 188.876C268.186 183.404 264.634 179.756 259.162 179.756H237.754V197.9H259.162ZM313.863 171.788C332.103 171.788 344.199 183.98 344.199 202.124C344.199 220.364 332.103 232.46 313.863 232.46C295.719 232.46 283.623 220.364 283.623 202.124C283.623 183.98 295.719 171.788 313.863 171.788ZM313.863 225.452C327.879 225.452 337.287 216.14 337.287 202.124C337.287 188.108 327.879 178.796 313.863 178.796C299.847 178.796 290.535 188.108 290.535 202.124C290.535 216.14 299.847 225.452 313.863 225.452ZM381.275 172.844C392.027 172.844 399.131 179.948 399.131 190.7C399.131 201.452 392.027 208.556 381.275 208.556H361.691V231.5H354.779V172.844H381.275ZM381.275 201.644C387.803 201.644 392.123 197.228 392.123 190.7C392.123 184.172 387.803 179.756 381.275 179.756H361.691V201.644H381.275ZM416.629 179.756V198.668H447.637V205.676H416.629V224.492H450.901V231.5H409.717V172.844H450.901V179.756H416.629ZM525.949 172.844L546.301 231.5H538.909L532.765 213.74H504.349L498.109 231.5H490.813L511.165 172.844H525.949ZM516.349 179.276L506.557 207.308H530.557L520.765 179.276H516.349ZM571.208 172.844L596.264 231.5H588.872L563.816 172.844H571.208ZM556.904 231.5V172.844H563.816V231.5H556.904ZM596.264 231.5V172.844H603.176V231.5H596.264ZM558.248 178.892V172.844H570.632V178.892H558.248ZM590.024 231.5V225.452H602.408V231.5H590.024ZM633.781 172.844C651.349 172.844 663.061 184.556 663.061 202.028C663.061 219.692 651.349 231.5 633.781 231.5H613.717V172.844H633.781ZM633.781 224.492C647.125 224.492 656.053 215.564 656.053 202.028C656.053 188.684 647.125 179.756 633.781 179.756H620.629V224.492H633.781ZM738.011 172.844L758.363 231.5H750.971L744.827 213.74H716.411L710.171 231.5H702.875L723.227 172.844H738.011ZM728.411 179.276L718.619 207.308H742.619L732.827 179.276H728.411ZM796.877 199.532C806.381 201.932 811.949 209.036 810.989 217.292C809.741 226.796 801.005 233.132 789.101 233.132C777.101 233.132 767.885 226.124 766.061 215.66L772.877 214.316C774.029 221.42 780.557 226.124 789.101 226.124C797.357 226.124 803.309 222.284 803.981 216.428C804.557 211.82 801.005 207.788 795.149 206.252L776.813 201.26C770.285 198.956 766.733 192.908 767.885 186.188C769.325 177.452 777.581 171.596 788.429 171.596C799.949 171.596 808.397 178.508 809.453 188.876L802.541 190.22C802.157 183.212 796.589 178.508 788.429 178.508C781.133 178.508 775.661 182.06 774.701 187.34C774.221 190.604 775.853 193.484 778.925 194.636L796.877 199.532ZM838.698 179.756V224.492H850.986V231.5H819.498V224.492H831.786V179.756H819.498V172.844H850.986V179.756H838.698ZM896.824 172.844L917.176 231.5H909.784L903.64 213.74H875.224L868.984 231.5H861.688L882.04 172.844H896.824ZM887.224 179.276L877.432 207.308H901.432L891.64 179.276H887.224Z" fill="white"/>
    <path d="M48.6296 2.748H49.6296V1.748H48.6296V2.748ZM48.6296 9.756V10.756H49.6296V9.756H48.6296ZM28.2776 9.756V8.756H27.2776V9.756H28.2776ZM28.2776 61.5V62.5H29.2776V61.5H28.2776ZM21.2696 61.5H20.2696V62.5H21.2696V61.5ZM21.2696 9.756H22.2696V8.756H21.2696V9.756ZM1.01364 9.756H0.0136414V10.756H1.01364V9.756ZM1.01364 2.748V1.748H0.0136414V2.748H1.01364ZM48.6296 2.748H47.6296V9.756H48.6296H49.6296V2.748H48.6296ZM48.6296 9.756V8.756H28.2776V9.756V10.756H48.6296V9.756ZM28.2776 9.756H27.2776V61.5H28.2776H29.2776V9.756H28.2776ZM28.2776 61.5V60.5H21.2696V61.5V62.5H28.2776V61.5ZM21.2696 61.5H22.2696V9.756H21.2696H20.2696V61.5H21.2696ZM21.2696 9.756V8.756H1.01364V9.756V10.756H21.2696V9.756ZM1.01364 9.756H2.01364V2.748H1.01364H0.0136414V9.756H1.01364ZM1.01364 2.748V3.748H48.6296V2.748V1.748H1.01364V2.748ZM104.547 2.844H105.547V1.844H104.547V2.844ZM104.547 61.5V62.5H105.547V61.5H104.547ZM97.5387 61.5H96.5387V62.5H97.5387V61.5ZM97.5387 33.18H98.5387V32.18H97.5387V33.18ZM66.0506 33.18V32.18H65.0506V33.18H66.0506ZM66.0506 61.5V62.5H67.0506V61.5H66.0506ZM59.1386 61.5H58.1386V62.5H59.1386V61.5ZM59.1386 2.844V1.844H58.1386V2.844H59.1386ZM66.0506 2.844H67.0506V1.844H66.0506V2.844ZM66.0506 26.748H65.0506V27.748H66.0506V26.748ZM97.5387 26.748V27.748H98.5387V26.748H97.5387ZM97.5387 2.844V1.844H96.5387V2.844H97.5387ZM104.547 2.844H103.547V61.5H104.547H105.547V2.844H104.547ZM104.547 61.5V60.5H97.5387V61.5V62.5H104.547V61.5ZM97.5387 61.5H98.5387V33.18H97.5387H96.5387V61.5H97.5387ZM97.5387 33.18V32.18H66.0506V33.18V34.18H97.5387V33.18ZM66.0506 33.18H65.0506V61.5H66.0506H67.0506V33.18H66.0506ZM66.0506 61.5V60.5H59.1386V61.5V62.5H66.0506V61.5ZM59.1386 61.5H60.1386V2.844H59.1386H58.1386V61.5H59.1386ZM59.1386 2.844V3.844H66.0506V2.844V1.844H59.1386V2.844ZM66.0506 2.844H65.0506V26.748H66.0506H67.0506V2.844H66.0506ZM66.0506 26.748V27.748H97.5387V26.748V25.748H66.0506V26.748ZM97.5387 26.748H98.5387V2.844H97.5387H96.5387V26.748H97.5387ZM97.5387 2.844V3.844H104.547V2.844V1.844H97.5387V2.844ZM121.926 9.756V8.756H120.926V9.756H121.926ZM121.926 28.668H120.926V29.668H121.926V28.668ZM152.934 28.668H153.934V27.668H152.934V28.668ZM152.934 35.676V36.676H153.934V35.676H152.934ZM121.926 35.676V34.676H120.926V35.676H121.926ZM121.926 54.492H120.926V55.492H121.926V54.492ZM156.198 54.492H157.198V53.492H156.198V54.492ZM156.198 61.5V62.5H157.198V61.5H156.198ZM115.014 61.5H114.014V62.5H115.014V61.5ZM115.014 2.844V1.844H114.014V2.844H115.014ZM156.198 2.844H157.198V1.844H156.198V2.844ZM156.198 9.756V10.756H157.198V9.756H156.198ZM121.926 9.756H120.926V28.668H121.926H122.926V9.756H121.926ZM121.926 28.668V29.668H152.934V28.668V27.668H121.926V28.668ZM152.934 28.668H151.934V35.676H152.934H153.934V28.668H152.934ZM152.934 35.676V34.676H121.926V35.676V36.676H152.934V35.676ZM121.926 35.676H120.926V54.492H121.926H122.926V35.676H121.926ZM121.926 54.492V55.492H156.198V54.492V53.492H121.926V54.492ZM156.198 54.492H155.198V61.5H156.198H157.198V54.492H156.198ZM156.198 61.5V60.5H115.014V61.5V62.5H156.198V61.5ZM115.014 61.5H116.014V2.844H115.014H114.014V61.5H115.014ZM115.014 2.844V3.844H156.198V2.844V1.844H115.014V2.844ZM156.198 2.844H155.198V9.756H156.198H157.198V2.844H156.198ZM156.198 9.756V8.756H121.926V9.756V10.756H156.198V9.756ZM196.014 61.5H195.014V62.5H196.014V61.5ZM196.014 2.844V1.844H195.014V2.844H196.014ZM202.926 2.844H203.926V1.844H202.926V2.844ZM202.926 61.5V62.5H203.926V61.5H202.926ZM210.318 2.844L211.28 2.57218L211.074 1.844H210.318V2.844ZM225.774 57.564V58.564H227.095L226.736 57.2922L225.774 57.564ZM218.382 57.564L217.419 57.8358L217.625 58.564H218.382V57.564ZM202.926 2.844V1.844H201.604L201.963 3.11582L202.926 2.844ZM248.622 61.5H247.622V62.5H248.622V61.5ZM248.622 2.844V1.844H247.622V2.844H248.622ZM255.534 2.844H256.534V1.844H255.534V2.844ZM255.534 61.5V62.5H256.534V61.5H255.534ZM241.23 2.844V1.844H240.473L240.267 2.57218L241.23 2.844ZM248.622 2.844L249.584 3.11582L249.943 1.844H248.622V2.844ZM233.166 57.564V58.564H233.922L234.128 57.8358L233.166 57.564ZM225.774 57.564L224.811 57.2922L224.452 58.564H225.774V57.564ZM197.07 8.892H196.07V9.892H197.07V8.892ZM197.07 2.844V1.844H196.07V2.844H197.07ZM209.454 2.844H210.454V1.844H209.454V2.844ZM209.454 8.892V9.892H210.454V8.892H209.454ZM242.286 8.892H241.286V9.892H242.286V8.892ZM242.286 2.844V1.844H241.286V2.844H242.286ZM254.67 2.844H255.67V1.844H254.67V2.844ZM254.67 8.892V9.892H255.67V8.892H254.67ZM219.726 57.564H218.726V58.564H219.726V57.564ZM219.726 51.516V50.516H218.726V51.516H219.726ZM232.11 51.516H233.11V50.516H232.11V51.516ZM232.11 57.564V58.564H233.11V57.564H232.11ZM196.014 61.5H197.014V2.844H196.014H195.014V61.5H196.014ZM196.014 2.844V3.844H202.926V2.844V1.844H196.014V2.844ZM202.926 2.844H201.926V61.5H202.926H203.926V2.844H202.926ZM202.926 61.5V60.5H196.014V61.5V62.5H202.926V61.5ZM210.318 2.844L209.355 3.11582L224.811 57.8358L225.774 57.564L226.736 57.2922L211.28 2.57218L210.318 2.844ZM225.774 57.564V56.564H218.382V57.564V58.564H225.774V57.564ZM218.382 57.564L219.344 57.2922L203.888 2.57218L202.926 2.844L201.963 3.11582L217.419 57.8358L218.382 57.564ZM202.926 2.844V3.844H210.318V2.844V1.844H202.926V2.844ZM248.622 61.5H249.622V2.844H248.622H247.622V61.5H248.622ZM248.622 2.844V3.844H255.534V2.844V1.844H248.622V2.844ZM255.534 2.844H254.534V61.5H255.534H256.534V2.844H255.534ZM255.534 61.5V60.5H248.622V61.5V62.5H255.534V61.5ZM241.23 2.844V3.844H248.622V2.844V1.844H241.23V2.844ZM248.622 2.844L247.659 2.57218L232.203 57.2922L233.166 57.564L234.128 57.8358L249.584 3.11582L248.622 2.844ZM233.166 57.564V56.564H225.774V57.564V58.564H233.166V57.564ZM225.774 57.564L226.736 57.8358L242.192 3.11582L241.23 2.844L240.267 2.57218L224.811 57.2922L225.774 57.564ZM197.07 8.892H198.07V2.844H197.07H196.07V8.892H197.07ZM197.07 2.844V3.844H209.454V2.844V1.844H197.07V2.844ZM209.454 2.844H208.454V8.892H209.454H210.454V2.844H209.454ZM209.454 8.892V7.892H197.07V8.892V9.892H209.454V8.892ZM242.286 8.892H243.286V2.844H242.286H241.286V8.892H242.286ZM242.286 2.844V3.844H254.67V2.844V1.844H242.286V2.844ZM254.67 2.844H253.67V8.892H254.67H255.67V2.844H254.67ZM254.67 8.892V7.892H242.286V8.892V9.892H254.67V8.892ZM219.726 57.564H220.726V51.516H219.726H218.726V57.564H219.726ZM219.726 51.516V52.516H232.11V51.516V50.516H219.726V51.516ZM232.11 51.516H231.11V57.564H232.11H233.11V51.516H232.11ZM232.11 57.564V56.564H219.726V57.564V58.564H232.11V57.564ZM273.051 9.756V8.756H272.051V9.756H273.051ZM273.051 28.668H272.051V29.668H273.051V28.668ZM304.059 28.668H305.059V27.668H304.059V28.668ZM304.059 35.676V36.676H305.059V35.676H304.059ZM273.051 35.676V34.676H272.051V35.676H273.051ZM273.051 54.492H272.051V55.492H273.051V54.492ZM307.323 54.492H308.323V53.492H307.323V54.492ZM307.323 61.5V62.5H308.323V61.5H307.323ZM266.139 61.5H265.139V62.5H266.139V61.5ZM266.139 2.844V1.844H265.139V2.844H266.139ZM307.323 2.844H308.323V1.844H307.323V2.844ZM307.323 9.756V10.756H308.323V9.756H307.323ZM273.051 9.756H272.051V28.668H273.051H274.051V9.756H273.051ZM273.051 28.668V29.668H304.059V28.668V27.668H273.051V28.668ZM304.059 28.668H303.059V35.676H304.059H305.059V28.668H304.059ZM304.059 35.676V34.676H273.051V35.676V36.676H304.059V35.676ZM273.051 35.676H272.051V54.492H273.051H274.051V35.676H273.051ZM273.051 54.492V55.492H307.323V54.492V53.492H273.051V54.492ZM307.323 54.492H306.323V61.5H307.323H308.323V54.492H307.323ZM307.323 61.5V60.5H266.139V61.5V62.5H307.323V61.5ZM266.139 61.5H267.139V2.844H266.139H265.139V61.5H266.139ZM266.139 2.844V3.844H307.323V2.844V1.844H266.139V2.844ZM307.323 2.844H306.323V9.756H307.323H308.323V2.844H307.323ZM307.323 9.756V8.756H273.051V9.756V10.756H307.323V9.756ZM324.801 9.756V8.756H323.801V9.756H324.801ZM324.801 28.668H323.801V29.668H324.801V28.668ZM355.809 28.668H356.809V27.668H355.809V28.668ZM355.809 35.676V36.676H356.809V35.676H355.809ZM324.801 35.676V34.676H323.801V35.676H324.801ZM324.801 54.492H323.801V55.492H324.801V54.492ZM359.073 54.492H360.073V53.492H359.073V54.492ZM359.073 61.5V62.5H360.073V61.5H359.073ZM317.889 61.5H316.889V62.5H317.889V61.5ZM317.889 2.844V1.844H316.889V2.844H317.889ZM359.073 2.844H360.073V1.844H359.073V2.844ZM359.073 9.756V10.756H360.073V9.756H359.073ZM324.801 9.756H323.801V28.668H324.801H325.801V9.756H324.801ZM324.801 28.668V29.668H355.809V28.668V27.668H324.801V28.668ZM355.809 28.668H354.809V35.676H355.809H356.809V28.668H355.809ZM355.809 35.676V34.676H324.801V35.676V36.676H355.809V35.676ZM324.801 35.676H323.801V54.492H324.801H325.801V35.676H324.801ZM324.801 54.492V55.492H359.073V54.492V53.492H324.801V54.492ZM359.073 54.492H358.073V61.5H359.073H360.073V54.492H359.073ZM359.073 61.5V60.5H317.889V61.5V62.5H359.073V61.5ZM317.889 61.5H318.889V2.844H317.889H316.889V61.5H317.889ZM317.889 2.844V3.844H359.073V2.844V1.844H317.889V2.844ZM359.073 2.844H358.073V9.756H359.073H360.073V2.844H359.073ZM359.073 9.756V8.756H324.801V9.756V10.756H359.073V9.756ZM417.255 2.748H418.255V1.748H417.255V2.748ZM417.255 9.756V10.756H418.255V9.756H417.255ZM396.903 9.756V8.756H395.903V9.756H396.903ZM396.903 61.5V62.5H397.903V61.5H396.903ZM389.895 61.5H388.895V62.5H389.895V61.5ZM389.895 9.756H390.895V8.756H389.895V9.756ZM369.639 9.756H368.639V10.756H369.639V9.756ZM369.639 2.748V1.748H368.639V2.748H369.639ZM417.255 2.748H416.255V9.756H417.255H418.255V2.748H417.255ZM417.255 9.756V8.756H396.903V9.756V10.756H417.255V9.756ZM396.903 9.756H395.903V61.5H396.903H397.903V9.756H396.903ZM396.903 61.5V60.5H389.895V61.5V62.5H396.903V61.5ZM389.895 61.5H390.895V9.756H389.895H388.895V61.5H389.895ZM389.895 9.756V8.756H369.639V9.756V10.756H389.895V9.756ZM369.639 9.756H370.639V2.748H369.639H368.639V9.756H369.639ZM369.639 2.748V3.748H417.255V2.748V1.748H369.639V2.748ZM446.964 9.756V8.756H445.964V9.756H446.964ZM446.964 54.492H445.964V55.492H446.964V54.492ZM459.252 54.492H460.252V53.492H459.252V54.492ZM459.252 61.5V62.5H460.252V61.5H459.252ZM427.764 61.5H426.764V62.5H427.764V61.5ZM427.764 54.492V53.492H426.764V54.492H427.764ZM440.052 54.492V55.492H441.052V54.492H440.052ZM440.052 9.756H441.052V8.756H440.052V9.756ZM427.764 9.756H426.764V10.756H427.764V9.756ZM427.764 2.844V1.844H426.764V2.844H427.764ZM459.252 2.844H460.252V1.844H459.252V2.844ZM459.252 9.756V10.756H460.252V9.756H459.252ZM446.964 9.756H445.964V54.492H446.964H447.964V9.756H446.964ZM446.964 54.492V55.492H459.252V54.492V53.492H446.964V54.492ZM459.252 54.492H458.252V61.5H459.252H460.252V54.492H459.252ZM459.252 61.5V60.5H427.764V61.5V62.5H459.252V61.5ZM427.764 61.5H428.764V54.492H427.764H426.764V61.5H427.764ZM427.764 54.492V55.492H440.052V54.492V53.492H427.764V54.492ZM440.052 54.492H441.052V9.756H440.052H439.052V54.492H440.052ZM440.052 9.756V8.756H427.764V9.756V10.756H440.052V9.756ZM427.764 9.756H428.764V2.844H427.764H426.764V9.756H427.764ZM427.764 2.844V3.844H459.252V2.844V1.844H427.764V2.844ZM459.252 2.844H458.252V9.756H459.252H460.252V2.844H459.252ZM459.252 9.756V8.756H446.964V9.756V10.756H459.252V9.756ZM484.161 2.844L485.081 2.45117L484.822 1.844H484.161V2.844ZM509.217 61.5V62.5H510.732L510.137 61.1072L509.217 61.5ZM501.825 61.5L500.906 61.8928L501.165 62.5H501.825V61.5ZM476.769 2.844V1.844H475.255L475.85 3.23683L476.769 2.844ZM469.857 61.5H468.857V62.5H469.857V61.5ZM469.857 2.844V1.844H468.857V2.844H469.857ZM476.769 2.844H477.769V1.844H476.769V2.844ZM476.769 61.5V62.5H477.769V61.5H476.769ZM509.217 61.5H508.217V62.5H509.217V61.5ZM509.217 2.844V1.844H508.217V2.844H509.217ZM516.129 2.844H517.129V1.844H516.129V2.844ZM516.129 61.5V62.5H517.129V61.5H516.129ZM471.201 8.892H470.201V9.892H471.201V8.892ZM471.201 2.844V1.844H470.201V2.844H471.201ZM483.585 2.844H484.585V1.844H483.585V2.844ZM483.585 8.892V9.892H484.585V8.892H483.585ZM502.977 61.5H501.977V62.5H502.977V61.5ZM502.977 55.452V54.452H501.977V55.452H502.977ZM515.361 55.452H516.361V54.452H515.361V55.452ZM515.361 61.5V62.5H516.361V61.5H515.361ZM484.161 2.844L483.242 3.23683L508.298 61.8928L509.217 61.5L510.137 61.1072L485.081 2.45117L484.161 2.844ZM509.217 61.5V60.5H501.825V61.5V62.5H509.217V61.5ZM501.825 61.5L502.745 61.1072L477.689 2.45117L476.769 2.844L475.85 3.23683L500.906 61.8928L501.825 61.5ZM476.769 2.844V3.844H484.161V2.844V1.844H476.769V2.844ZM469.857 61.5H470.857V2.844H469.857H468.857V61.5H469.857ZM469.857 2.844V3.844H476.769V2.844V1.844H469.857V2.844ZM476.769 2.844H475.769V61.5H476.769H477.769V2.844H476.769ZM476.769 61.5V60.5H469.857V61.5V62.5H476.769V61.5ZM509.217 61.5H510.217V2.844H509.217H508.217V61.5H509.217ZM509.217 2.844V3.844H516.129V2.844V1.844H509.217V2.844ZM516.129 2.844H515.129V61.5H516.129H517.129V2.844H516.129ZM516.129 61.5V60.5H509.217V61.5V62.5H516.129V61.5ZM471.201 8.892H472.201V2.844H471.201H470.201V8.892H471.201ZM471.201 2.844V3.844H483.585V2.844V1.844H471.201V2.844ZM483.585 2.844H482.585V8.892H483.585H484.585V2.844H483.585ZM483.585 8.892V7.892H471.201V8.892V9.892H483.585V8.892ZM502.977 61.5H503.977V55.452H502.977H501.977V61.5H502.977ZM502.977 55.452V56.452H515.361V55.452V54.452H502.977V55.452ZM515.361 55.452H514.361V61.5H515.361H516.361V55.452H515.361ZM515.361 61.5V60.5H502.977V61.5V62.5H515.361V61.5ZM582.83 35.292L583.829 35.3282L583.83 35.3101V35.292H582.83ZM579.374 17.532L579.849 18.412L580.634 17.9885L580.302 17.1606L579.374 17.532ZM573.326 20.796L572.387 21.1394L572.784 22.225L573.801 21.676L573.326 20.796ZM533.774 31.836L534.774 31.8429L534.774 31.8291L533.774 31.836ZM575.534 38.748L576.513 38.9516L576.763 37.748H575.534V38.748ZM556.718 38.748H555.718V39.748H556.718V38.748ZM556.718 31.836V30.836H555.718V31.836H556.718ZM582.83 31.836H583.83V30.836H582.83V31.836ZM582.83 35.292L581.831 35.2558C581.368 48.0323 571.092 60.884 554.894 60.884V61.884V62.884C572.296 62.884 583.332 49.0477 583.829 35.3282L582.83 35.292ZM554.894 61.884V60.884C546.743 60.884 540.009 57.9792 535.309 52.9455C530.603 47.9057 527.862 40.6525 527.862 31.836H526.862H525.862C525.862 41.0675 528.737 48.8383 533.847 54.3105C538.963 59.7888 546.245 62.884 554.894 62.884V61.884ZM526.862 31.836H527.862C527.862 23.0195 530.603 15.7663 535.309 10.7265C540.009 5.69282 546.743 2.788 554.894 2.788V1.788V0.787996C546.245 0.787996 538.963 3.88318 533.847 9.3615C528.737 14.8337 525.862 22.6045 525.862 31.836H526.862ZM554.894 1.788V2.788C565.322 2.788 574.211 7.31635 578.445 17.9034L579.374 17.532L580.302 17.1606C575.705 5.66764 565.97 0.787996 554.894 0.787996V1.788ZM579.374 17.532L578.899 16.652L572.851 19.916L573.326 20.796L573.801 21.676L579.849 18.412L579.374 17.532ZM573.326 20.796L574.265 20.4526C572.565 15.8031 569.889 12.5186 566.512 10.408C563.146 8.30446 559.158 7.412 554.894 7.412V8.412V9.412C558.886 9.412 562.482 10.2475 565.452 12.104C568.411 13.9534 570.823 16.8609 572.387 21.1394L573.326 20.796ZM554.894 8.412V7.412C548.248 7.412 542.666 9.89306 538.766 14.2359C534.874 18.5695 532.725 24.681 532.774 31.8429L533.774 31.836L534.774 31.8291C534.727 25.071 536.753 19.4705 540.254 15.5721C543.746 11.6829 548.772 9.412 554.894 9.412V8.412ZM533.774 31.836L532.774 31.8291C532.725 38.9912 534.875 45.08 538.768 49.3903C542.669 53.7093 548.251 56.164 554.894 56.164V55.164V54.164C548.769 54.164 543.743 51.9147 540.252 48.0497C536.753 44.176 534.727 38.6007 534.774 31.8429L533.774 31.836ZM554.894 55.164V56.164C565.722 56.164 574.398 49.1245 576.513 38.9516L575.534 38.748L574.555 38.5444C572.638 47.7635 564.801 54.164 554.894 54.164V55.164ZM575.534 38.748V37.748H556.718V38.748V39.748H575.534V38.748ZM556.718 38.748H557.718V31.836H556.718H555.718V38.748H556.718ZM556.718 31.836V32.836H582.83V31.836V30.836H556.718V31.836ZM582.83 31.836H581.83V35.292H582.83H583.83V31.836H582.83ZM629.769 38.556V37.556H628.769V38.556H629.769ZM629.769 61.5V62.5H630.769V61.5H629.769ZM622.857 61.5H621.857V62.5H622.857V61.5ZM622.857 2.844V1.844H621.857V2.844H622.857ZM629.769 9.756V8.756H628.769V9.756H629.769ZM629.769 31.644H628.769V32.644H629.769V31.644ZM649.353 2.844V3.844C654.504 3.844 658.701 5.5413 661.606 8.44711C664.512 11.3529 666.209 15.549 666.209 20.7H667.209H668.209C668.209 15.099 666.355 10.3671 663.021 7.03289C659.686 3.6987 654.954 1.844 649.353 1.844V2.844ZM667.209 20.7H666.209C666.209 25.851 664.512 30.0471 661.606 32.9529C658.701 35.8587 654.504 37.556 649.353 37.556V38.556V39.556C654.954 39.556 659.686 37.7013 663.021 34.3671C666.355 31.0329 668.209 26.301 668.209 20.7H667.209ZM649.353 38.556V37.556H629.769V38.556V39.556H649.353V38.556ZM629.769 38.556H628.769V61.5H629.769H630.769V38.556H629.769ZM629.769 61.5V60.5H622.857V61.5V62.5H629.769V61.5ZM622.857 61.5H623.857V2.844H622.857H621.857V61.5H622.857ZM622.857 2.844V3.844H649.353V2.844V1.844H622.857V2.844ZM649.353 31.644V32.644C652.849 32.644 655.829 31.4568 657.937 29.3226C660.043 27.1898 661.201 24.1886 661.201 20.7H660.201H659.201C659.201 23.7394 658.2 26.2102 656.514 27.9174C654.829 29.6232 652.386 30.644 649.353 30.644V31.644ZM660.201 20.7H661.201C661.201 17.2114 660.043 14.2102 657.937 12.0774C655.829 9.94315 652.849 8.756 649.353 8.756V9.756V10.756C652.386 10.756 654.829 11.7768 656.514 13.4826C658.2 15.1898 659.201 17.6606 659.201 20.7H660.201ZM649.353 9.756V8.756H629.769V9.756V10.756H649.353V9.756ZM629.769 9.756H628.769V31.644H629.769H630.769V9.756H629.769ZM629.769 31.644V32.644H649.353V31.644V30.644H629.769V31.644ZM706.16 1.788V2.788C715.052 2.788 722.368 5.75529 727.46 10.8583C732.552 15.9617 735.496 23.279 735.496 32.124H736.496H737.496C737.496 22.825 734.392 14.9743 728.876 9.44569C723.359 3.9167 715.508 0.787996 706.16 0.787996V1.788ZM736.496 32.124H735.496C735.496 41.0181 732.551 48.3345 727.461 53.4249C722.37 58.5153 715.054 61.46 706.16 61.46V62.46V63.46C715.506 63.46 723.357 60.3567 728.875 54.8391C734.393 49.3215 737.496 41.4699 737.496 32.124H736.496ZM706.16 62.46V61.46C697.315 61.46 690.023 58.5162 684.944 53.4257C679.865 48.3351 676.92 41.0181 676.92 32.124H675.92H674.92C674.92 41.4699 678.023 49.3209 683.528 54.8383C689.033 60.3558 696.861 63.46 706.16 63.46V62.46ZM675.92 32.124H676.92C676.92 23.279 679.864 15.9611 684.945 10.8575C690.025 5.75438 697.317 2.788 706.16 2.788V1.788V0.787996C696.858 0.787996 689.031 3.91762 683.527 9.44649C678.024 14.9749 674.92 22.825 674.92 32.124H675.92ZM706.16 55.452V56.452C713.394 56.452 719.516 54.0447 723.833 49.7532C728.15 45.461 730.584 39.3614 730.584 32.124H729.584H728.584C728.584 38.9026 726.313 44.467 722.423 48.3348C718.532 52.2033 712.942 54.452 706.16 54.452V55.452ZM729.584 32.124H730.584C730.584 24.8866 728.15 18.787 723.833 14.4948C719.516 10.2033 713.394 7.796 706.16 7.796V8.796V9.796C712.942 9.796 718.532 12.0447 722.423 15.9132C726.313 19.781 728.584 25.3454 728.584 32.124H729.584ZM706.16 8.796V7.796C698.926 7.796 692.826 10.2036 688.533 14.4969C684.239 18.7902 681.832 24.8896 681.832 32.124H682.832H683.832C683.832 25.3424 686.08 19.7778 689.947 15.9111C693.814 12.0444 699.378 9.796 706.16 9.796V8.796ZM682.832 32.124H681.832C681.832 39.3584 684.239 45.4578 688.533 49.7511C692.826 54.0444 698.926 56.452 706.16 56.452V55.452V54.452C699.378 54.452 693.814 52.2036 689.947 48.3369C686.08 44.4702 683.832 38.9056 683.832 32.124H682.832ZM762.057 9.756V8.756H761.057V9.756H762.057ZM762.057 54.492H761.057V55.492H762.057V54.492ZM774.345 54.492H775.345V53.492H774.345V54.492ZM774.345 61.5V62.5H775.345V61.5H774.345ZM742.857 61.5H741.857V62.5H742.857V61.5ZM742.857 54.492V53.492H741.857V54.492H742.857ZM755.145 54.492V55.492H756.145V54.492H755.145ZM755.145 9.756H756.145V8.756H755.145V9.756ZM742.857 9.756H741.857V10.756H742.857V9.756ZM742.857 2.844V1.844H741.857V2.844H742.857ZM774.345 2.844H775.345V1.844H774.345V2.844ZM774.345 9.756V10.756H775.345V9.756H774.345ZM762.057 9.756H761.057V54.492H762.057H763.057V9.756H762.057ZM762.057 54.492V55.492H774.345V54.492V53.492H762.057V54.492ZM774.345 54.492H773.345V61.5H774.345H775.345V54.492H774.345ZM774.345 61.5V60.5H742.857V61.5V62.5H774.345V61.5ZM742.857 61.5H743.857V54.492H742.857H741.857V61.5H742.857ZM742.857 54.492V55.492H755.145V54.492V53.492H742.857V54.492ZM755.145 54.492H756.145V9.756H755.145H754.145V54.492H755.145ZM755.145 9.756V8.756H742.857V9.756V10.756H755.145V9.756ZM742.857 9.756H743.857V2.844H742.857H741.857V9.756H742.857ZM742.857 2.844V3.844H774.345V2.844V1.844H742.857V2.844ZM774.345 2.844H773.345V9.756H774.345H775.345V2.844H774.345ZM774.345 9.756V8.756H762.057V9.756V10.756H774.345V9.756ZM799.255 2.844L800.175 2.45117L799.915 1.844H799.255V2.844ZM824.311 61.5V62.5H825.826L825.231 61.1072L824.311 61.5ZM816.919 61.5L816 61.8928L816.259 62.5H816.919V61.5ZM791.863 2.844V1.844H790.349L790.944 3.23683L791.863 2.844ZM784.951 61.5H783.951V62.5H784.951V61.5ZM784.951 2.844V1.844H783.951V2.844H784.951ZM791.863 2.844H792.863V1.844H791.863V2.844ZM791.863 61.5V62.5H792.863V61.5H791.863ZM824.311 61.5H823.311V62.5H824.311V61.5ZM824.311 2.844V1.844H823.311V2.844H824.311ZM831.223 2.844H832.223V1.844H831.223V2.844ZM831.223 61.5V62.5H832.223V61.5H831.223ZM786.295 8.892H785.295V9.892H786.295V8.892ZM786.295 2.844V1.844H785.295V2.844H786.295ZM798.679 2.844H799.679V1.844H798.679V2.844ZM798.679 8.892V9.892H799.679V8.892H798.679ZM818.071 61.5H817.071V62.5H818.071V61.5ZM818.071 55.452V54.452H817.071V55.452H818.071ZM830.455 55.452H831.455V54.452H830.455V55.452ZM830.455 61.5V62.5H831.455V61.5H830.455ZM799.255 2.844L798.336 3.23683L823.392 61.8928L824.311 61.5L825.231 61.1072L800.175 2.45117L799.255 2.844ZM824.311 61.5V60.5H816.919V61.5V62.5H824.311V61.5ZM816.919 61.5L817.839 61.1072L792.783 2.45117L791.863 2.844L790.944 3.23683L816 61.8928L816.919 61.5ZM791.863 2.844V3.844H799.255V2.844V1.844H791.863V2.844ZM784.951 61.5H785.951V2.844H784.951H783.951V61.5H784.951ZM784.951 2.844V3.844H791.863V2.844V1.844H784.951V2.844ZM791.863 2.844H790.863V61.5H791.863H792.863V2.844H791.863ZM791.863 61.5V60.5H784.951V61.5V62.5H791.863V61.5ZM824.311 61.5H825.311V2.844H824.311H823.311V61.5H824.311ZM824.311 2.844V3.844H831.223V2.844V1.844H824.311V2.844ZM831.223 2.844H830.223V61.5H831.223H832.223V2.844H831.223ZM831.223 61.5V60.5H824.311V61.5V62.5H831.223V61.5ZM786.295 8.892H787.295V2.844H786.295H785.295V8.892H786.295ZM786.295 2.844V3.844H798.679V2.844V1.844H786.295V2.844ZM798.679 2.844H797.679V8.892H798.679H799.679V2.844H798.679ZM798.679 8.892V7.892H786.295V8.892V9.892H798.679V8.892ZM818.071 61.5H819.071V55.452H818.071H817.071V61.5H818.071ZM818.071 55.452V56.452H830.455V55.452V54.452H818.071V55.452ZM830.455 55.452H829.455V61.5H830.455H831.455V55.452H830.455ZM830.455 61.5V60.5H818.071V61.5V62.5H830.455V61.5ZM889.38 2.748H890.38V1.748H889.38V2.748ZM889.38 9.756V10.756H890.38V9.756H889.38ZM869.028 9.756V8.756H868.028V9.756H869.028ZM869.028 61.5V62.5H870.028V61.5H869.028ZM862.02 61.5H861.02V62.5H862.02V61.5ZM862.02 9.756H863.02V8.756H862.02V9.756ZM841.764 9.756H840.764V10.756H841.764V9.756ZM841.764 2.748V1.748H840.764V2.748H841.764ZM889.38 2.748H888.38V9.756H889.38H890.38V2.748H889.38ZM889.38 9.756V8.756H869.028V9.756V10.756H889.38V9.756ZM869.028 9.756H868.028V61.5H869.028H870.028V9.756H869.028ZM869.028 61.5V60.5H862.02V61.5V62.5H869.028V61.5ZM862.02 61.5H863.02V9.756H862.02H861.02V61.5H862.02ZM862.02 9.756V8.756H841.764V9.756V10.756H862.02V9.756ZM841.764 9.756H842.764V2.748H841.764H840.764V9.756H841.764ZM841.764 2.748V3.748H889.38V2.748V1.748H841.764V2.748ZM959.379 1.788V2.788C968.271 2.788 975.587 5.75529 980.679 10.8583C985.771 15.9617 988.715 23.279 988.715 32.124H989.715H990.715C990.715 22.825 987.611 14.9743 982.095 9.44569C976.578 3.9167 968.727 0.787996 959.379 0.787996V1.788ZM989.715 32.124H988.715C988.715 41.0181 985.77 48.3345 980.68 53.4249C975.589 58.5153 968.273 61.46 959.379 61.46V62.46V63.46C968.725 63.46 976.576 60.3567 982.094 54.8391C987.611 49.3215 990.715 41.4699 990.715 32.124H989.715ZM959.379 62.46V61.46C950.534 61.46 943.242 58.5162 938.163 53.4257C933.083 48.3351 930.139 41.0181 930.139 32.124H929.139H928.139C928.139 41.4699 931.242 49.3209 936.747 54.8383C942.252 60.3558 950.079 63.46 959.379 63.46V62.46ZM929.139 32.124H930.139C930.139 23.279 933.083 15.9611 938.163 10.8575C943.243 5.75438 950.536 2.788 959.379 2.788V1.788V0.787996C950.077 0.787996 942.25 3.91762 936.746 9.44649C931.242 14.9749 928.139 22.825 928.139 32.124H929.139ZM959.379 55.452V56.452C966.613 56.452 972.735 54.0447 977.052 49.7532C981.369 45.461 983.803 39.3614 983.803 32.124H982.803H981.803C981.803 38.9026 979.532 44.467 975.642 48.3348C971.75 52.2033 966.161 54.452 959.379 54.452V55.452ZM982.803 32.124H983.803C983.803 24.8866 981.369 18.787 977.052 14.4948C972.735 10.2033 966.613 7.796 959.379 7.796V8.796V9.796C966.161 9.796 971.75 12.0447 975.642 15.9132C979.532 19.781 981.803 25.3454 981.803 32.124H982.803ZM959.379 8.796V7.796C952.144 7.796 946.045 10.2036 941.752 14.4969C937.458 18.7902 935.051 24.8896 935.051 32.124H936.051H937.051C937.051 25.3424 939.299 19.7778 943.166 15.9111C947.032 12.0444 952.597 9.796 959.379 9.796V8.796ZM936.051 32.124H935.051C935.051 39.3584 937.458 45.4578 941.752 49.7511C946.045 54.0444 952.144 56.452 959.379 56.452V55.452V54.452C952.597 54.452 947.032 52.2036 943.166 48.3369C939.299 44.4702 937.051 38.9056 937.051 32.124H936.051ZM1007.21 9.756V8.756H1006.21V9.756H1007.21ZM1007.21 28.764H1006.21V29.764H1007.21V28.764ZM1035.24 28.764H1036.24V27.764H1035.24V28.764ZM1035.24 35.676V36.676H1036.24V35.676H1035.24ZM1007.21 35.676V34.676H1006.21V35.676H1007.21ZM1007.21 61.5V62.5H1008.21V61.5H1007.21ZM1000.29 61.5H999.295V62.5H1000.29V61.5ZM1000.29 2.844V1.844H999.295V2.844H1000.29ZM1040.13 2.844H1041.13V1.844H1040.13V2.844ZM1040.13 9.756V10.756H1041.13V9.756H1040.13ZM1007.21 9.756H1006.21V28.764H1007.21H1008.21V9.756H1007.21ZM1007.21 28.764V29.764H1035.24V28.764V27.764H1007.21V28.764ZM1035.24 28.764H1034.24V35.676H1035.24H1036.24V28.764H1035.24ZM1035.24 35.676V34.676H1007.21V35.676V36.676H1035.24V35.676ZM1007.21 35.676H1006.21V61.5H1007.21H1008.21V35.676H1007.21ZM1007.21 61.5V60.5H1000.29V61.5V62.5H1007.21V61.5ZM1000.29 61.5H1001.29V2.844H1000.29H999.295V61.5H1000.29ZM1000.29 2.844V3.844H1040.13V2.844V1.844H1000.29V2.844ZM1040.13 2.844H1039.13V9.756H1040.13H1041.13V2.844H1040.13ZM1040.13 9.756V8.756H1007.21V9.756V10.756H1040.13V9.756ZM102.567 131.62L103.445 132.099L103.923 131.222L103.046 130.743L102.567 131.62ZM102.567 102.628L103.046 103.505L103.923 103.026L103.445 102.149L102.567 102.628ZM96.4227 105.988L95.5425 106.463L96.0201 107.348L96.9025 106.865L96.4227 105.988ZM96.4227 128.26L96.9025 127.383L96.0152 126.897L95.54 127.79L96.4227 128.26ZM102.567 131.62L101.689 131.141C96.6799 140.324 86.3605 146.46 75.8786 146.46V147.46V148.46C87.0928 148.46 98.0854 141.924 103.445 132.099L102.567 131.62ZM75.8786 147.46V146.46C67.034 146.46 59.7415 143.516 54.6626 138.426C49.5834 133.335 46.6386 126.018 46.6386 117.124H45.6386H44.6386C44.6386 126.47 47.7419 134.321 53.2467 139.838C58.7518 145.356 66.5793 148.46 75.8786 148.46V147.46ZM45.6386 117.124H46.6386C46.6386 108.279 49.5828 100.961 54.6633 95.8575C59.7434 90.7544 67.0362 87.788 75.8786 87.788V86.788V85.788C66.5771 85.788 58.7499 88.9176 53.2459 94.4465C47.7425 99.9749 44.6386 107.825 44.6386 117.124H45.6386ZM75.8786 86.788V87.788C86.3605 87.788 96.6799 93.9239 101.689 103.107L102.567 102.628L103.445 102.149C98.0854 92.3241 87.0928 85.788 75.8786 85.788V86.788ZM102.567 102.628L102.087 101.751L95.9428 105.111L96.4227 105.988L96.9025 106.865L103.046 103.505L102.567 102.628ZM96.4227 105.988L97.3027 105.513C93.1904 97.8902 84.5943 92.796 75.8786 92.796V93.796V94.796C83.867 94.796 91.7829 99.4938 95.5425 106.463L96.4227 105.988ZM75.8786 93.796V92.796C68.6443 92.796 62.5449 95.2036 58.2515 99.4969C53.9582 103.79 51.5506 109.89 51.5506 117.124H52.5506H53.5506C53.5506 110.342 55.7991 104.778 59.6657 100.911C63.5324 97.0444 69.097 94.796 75.8786 94.796V93.796ZM52.5506 117.124H51.5506C51.5506 124.358 53.9582 130.458 58.2515 134.751C62.5449 139.044 68.6443 141.452 75.8786 141.452V140.452V139.452C69.097 139.452 63.5324 137.204 59.6657 133.337C55.7991 129.47 53.5506 123.906 53.5506 117.124H52.5506ZM75.8786 140.452V141.452C84.5881 141.452 93.19 136.459 97.3053 128.73L96.4227 128.26L95.54 127.79C91.7833 134.845 83.8732 139.452 75.8786 139.452V140.452ZM96.4227 128.26L95.9428 129.137L102.087 132.497L102.567 131.62L103.046 130.743L96.9025 127.383L96.4227 128.26ZM159.603 146.5V147.5H161.513L160.425 145.93L159.603 146.5ZM151.155 146.5L150.334 147.072L150.633 147.5H151.155V146.5ZM132.627 119.908L133.447 119.336L133.149 118.908H132.627V119.908ZM120.051 119.908V118.908H119.051V119.908H120.051ZM120.051 146.5V147.5H121.051V146.5H120.051ZM113.139 146.5H112.139V147.5H113.139V146.5ZM113.139 87.844V86.844H112.139V87.844H113.139ZM141.171 119.908V118.908H139.261L140.349 120.478L141.171 119.908ZM120.051 94.756V93.756H119.051V94.756H120.051ZM120.051 112.9H119.051V113.9H120.051V112.9ZM159.603 146.5V145.5H151.155V146.5V147.5H159.603V146.5ZM151.155 146.5L151.975 145.928L133.447 119.336L132.627 119.908L131.806 120.48L150.334 147.072L151.155 146.5ZM132.627 119.908V118.908H120.051V119.908V120.908H132.627V119.908ZM120.051 119.908H119.051V146.5H120.051H121.051V119.908H120.051ZM120.051 146.5V145.5H113.139V146.5V147.5H120.051V146.5ZM113.139 146.5H114.139V87.844H113.139H112.139V146.5H113.139ZM113.139 87.844V88.844H141.459V87.844V86.844H113.139V87.844ZM141.459 87.844V88.844C146.034 88.844 149.775 90.3498 152.369 92.9326C154.962 95.5148 156.491 99.2544 156.491 103.876H157.491H158.491C158.491 98.8016 156.803 94.5252 153.78 91.5154C150.758 88.5062 146.483 86.844 141.459 86.844V87.844ZM157.491 103.876H156.491C156.491 108.447 154.964 112.189 152.368 114.785C149.772 117.381 146.03 118.908 141.459 118.908V119.908V120.908C146.487 120.908 150.762 119.219 153.782 116.199C156.802 113.179 158.491 108.905 158.491 103.876H157.491ZM141.459 119.908V118.908H141.171V119.908V120.908H141.459V119.908ZM141.171 119.908L140.349 120.478L158.781 147.07L159.603 146.5L160.425 145.93L141.993 119.338L141.171 119.908ZM141.459 112.9V113.9C144.423 113.9 146.947 112.907 148.732 111.108C150.517 109.311 151.483 106.788 151.483 103.876H150.483H149.483C149.483 106.34 148.673 108.329 147.313 109.7C145.954 111.069 143.967 111.9 141.459 111.9V112.9ZM150.483 103.876H151.483C151.483 100.92 150.519 98.3739 148.735 96.5623C146.949 94.7489 144.423 93.756 141.459 93.756V94.756V95.756C143.966 95.756 145.952 96.5871 147.31 97.9657C148.67 99.3461 149.483 101.36 149.483 103.876H150.483ZM141.459 94.756V93.756H120.051V94.756V95.756H141.459V94.756ZM120.051 94.756H119.051V112.9H120.051H121.051V94.756H120.051ZM120.051 112.9V113.9H141.459V112.9V111.9H120.051V112.9ZM187.315 114.82V115.82H187.963L188.228 115.229L187.315 114.82ZM199.411 87.844V86.844H198.764L198.499 87.4349L199.411 87.844ZM206.803 87.844L207.716 88.2526L208.346 86.844H206.803V87.844ZM192.019 120.868V121.868H192.667L192.932 121.277L192.019 120.868ZM188.083 120.868V119.868H187.083V120.868H188.083ZM188.083 146.5V147.5H189.083V146.5H188.083ZM181.075 146.5H180.075V147.5H181.075V146.5ZM181.075 120.868H182.075V119.868H181.075V120.868ZM177.235 120.868L176.322 121.277L176.587 121.868H177.235V120.868ZM162.451 87.844V86.844H160.908L161.538 88.2526L162.451 87.844ZM169.747 87.844L170.658 87.4322L170.393 86.844H169.747V87.844ZM181.939 114.82L181.028 115.232L181.294 115.82H181.939V114.82ZM187.315 114.82L188.228 115.229L200.324 88.2532L199.411 87.844L198.499 87.4349L186.403 114.411L187.315 114.82ZM199.411 87.844V88.844H206.803V87.844V86.844H199.411V87.844ZM206.803 87.844L205.89 87.4354L191.106 120.459L192.019 120.868L192.932 121.277L207.716 88.2526L206.803 87.844ZM192.019 120.868V119.868H188.083V120.868V121.868H192.019V120.868ZM188.083 120.868H187.083V146.5H188.083H189.083V120.868H188.083ZM188.083 146.5V145.5H181.075V146.5V147.5H188.083V146.5ZM181.075 146.5H182.075V120.868H181.075H180.075V146.5H181.075ZM181.075 120.868V119.868H177.235V120.868V121.868H181.075V120.868ZM177.235 120.868L178.148 120.459L163.364 87.4354L162.451 87.844L161.538 88.2526L176.322 121.277L177.235 120.868ZM162.451 87.844V88.844H169.747V87.844V86.844H162.451V87.844ZM169.747 87.844L168.836 88.2558L181.028 115.232L181.939 114.82L182.85 114.408L170.658 87.4322L169.747 87.844ZM181.939 114.82V115.82H187.315V114.82V113.82H181.939V114.82ZM224.301 123.556V122.556H223.301V123.556H224.301ZM224.301 146.5V147.5H225.301V146.5H224.301ZM217.389 146.5H216.389V147.5H217.389V146.5ZM217.389 87.844V86.844H216.389V87.844H217.389ZM224.301 94.756V93.756H223.301V94.756H224.301ZM224.301 116.644H223.301V117.644H224.301V116.644ZM243.885 87.844V88.844C249.036 88.844 253.232 90.5413 256.138 93.4471C259.043 96.3529 260.741 100.549 260.741 105.7H261.741H262.741C262.741 100.099 260.886 95.3671 257.552 92.0329C254.218 88.6987 249.486 86.844 243.885 86.844V87.844ZM261.741 105.7H260.741C260.741 110.851 259.043 115.047 256.138 117.953C253.232 120.859 249.036 122.556 243.885 122.556V123.556V124.556C249.486 124.556 254.218 122.701 257.552 119.367C260.886 116.033 262.741 111.301 262.741 105.7H261.741ZM243.885 123.556V122.556H224.301V123.556V124.556H243.885V123.556ZM224.301 123.556H223.301V146.5H224.301H225.301V123.556H224.301ZM224.301 146.5V145.5H217.389V146.5V147.5H224.301V146.5ZM217.389 146.5H218.389V87.844H217.389H216.389V146.5H217.389ZM217.389 87.844V88.844H243.885V87.844V86.844H217.389V87.844ZM243.885 116.644V117.644C247.38 117.644 250.361 116.457 252.468 114.323C254.574 112.19 255.733 109.189 255.733 105.7H254.733H253.733C253.733 108.739 252.731 111.21 251.045 112.917C249.361 114.623 246.917 115.644 243.885 115.644V116.644ZM254.733 105.7H255.733C255.733 102.211 254.574 99.2102 252.468 97.0774C250.361 94.9432 247.38 93.756 243.885 93.756V94.756V95.756C246.917 95.756 249.361 96.7768 251.045 98.4826C252.731 100.19 253.733 102.661 253.733 105.7H254.733ZM243.885 94.756V93.756H224.301V94.756V95.756H243.885V94.756ZM224.301 94.756H223.301V116.644H224.301H225.301V94.756H224.301ZM224.301 116.644V117.644H243.885V116.644V115.644H224.301V116.644ZM316.755 87.748H317.755V86.748H316.755V87.748ZM316.755 94.756V95.756H317.755V94.756H316.755ZM296.403 94.756V93.756H295.403V94.756H296.403ZM296.403 146.5V147.5H297.403V146.5H296.403ZM289.395 146.5H288.395V147.5H289.395V146.5ZM289.395 94.756H290.395V93.756H289.395V94.756ZM269.139 94.756H268.139V95.756H269.139V94.756ZM269.139 87.748V86.748H268.139V87.748H269.139ZM316.755 87.748H315.755V94.756H316.755H317.755V87.748H316.755ZM316.755 94.756V93.756H296.403V94.756V95.756H316.755V94.756ZM296.403 94.756H295.403V146.5H296.403H297.403V94.756H296.403ZM296.403 146.5V145.5H289.395V146.5V147.5H296.403V146.5ZM289.395 146.5H290.395V94.756H289.395H288.395V146.5H289.395ZM289.395 94.756V93.756H269.139V94.756V95.756H289.395V94.756ZM269.139 94.756H270.139V87.748H269.139H268.139V94.756H269.139ZM269.139 87.748V88.748H316.755V87.748V86.748H269.139V87.748ZM351.879 86.788V87.788C360.771 87.788 368.087 90.7553 373.179 95.8583C378.271 100.962 381.215 108.279 381.215 117.124H382.215H383.215C383.215 107.825 380.111 99.9743 374.595 94.4457C369.078 88.9167 361.227 85.788 351.879 85.788V86.788ZM382.215 117.124H381.215C381.215 126.018 378.27 133.335 373.18 138.425C368.089 143.515 360.773 146.46 351.879 146.46V147.46V148.46C361.225 148.46 369.076 145.357 374.594 139.839C380.111 134.322 383.215 126.47 383.215 117.124H382.215ZM351.879 147.46V146.46C343.034 146.46 335.742 143.516 330.663 138.426C325.583 133.335 322.639 126.018 322.639 117.124H321.639H320.639C320.639 126.47 323.742 134.321 329.247 139.838C334.752 145.356 342.579 148.46 351.879 148.46V147.46ZM321.639 117.124H322.639C322.639 108.279 325.583 100.961 330.663 95.8575C335.743 90.7544 343.036 87.788 351.879 87.788V86.788V85.788C342.577 85.788 334.75 88.9176 329.246 94.4465C323.743 99.9749 320.639 107.825 320.639 117.124H321.639ZM351.879 140.452V141.452C359.113 141.452 365.235 139.045 369.552 134.753C373.869 130.461 376.303 124.361 376.303 117.124H375.303H374.303C374.303 123.903 372.032 129.467 368.142 133.335C364.25 137.203 358.661 139.452 351.879 139.452V140.452ZM375.303 117.124H376.303C376.303 109.887 373.869 103.787 369.552 99.4948C365.235 95.2033 359.113 92.796 351.879 92.796V93.796V94.796C358.661 94.796 364.25 97.0447 368.142 100.913C372.032 104.781 374.303 110.345 374.303 117.124H375.303ZM351.879 93.796V92.796C344.644 92.796 338.545 95.2036 334.252 99.4969C329.958 103.79 327.551 109.89 327.551 117.124H328.551H329.551C329.551 110.342 331.799 104.778 335.666 100.911C339.532 97.0444 345.097 94.796 351.879 94.796V93.796ZM328.551 117.124H327.551C327.551 124.358 329.958 130.458 334.252 134.751C338.545 139.044 344.644 141.452 351.879 141.452V140.452V139.452C345.097 139.452 339.532 137.204 335.666 133.337C331.799 129.47 329.551 123.906 329.551 117.124H328.551ZM448.955 120.292L449.954 120.328L449.955 120.31V120.292H448.955ZM445.499 102.532L445.974 103.412L446.759 102.989L446.427 102.161L445.499 102.532ZM439.451 105.796L438.512 106.139L438.909 107.225L439.926 106.676L439.451 105.796ZM399.899 116.836L400.899 116.843L400.899 116.829L399.899 116.836ZM441.659 123.748L442.638 123.952L442.888 122.748H441.659V123.748ZM422.843 123.748H421.843V124.748H422.843V123.748ZM422.843 116.836V115.836H421.843V116.836H422.843ZM448.955 116.836H449.955V115.836H448.955V116.836ZM448.955 120.292L447.956 120.256C447.493 133.032 437.217 145.884 421.019 145.884V146.884V147.884C438.421 147.884 449.457 134.048 449.954 120.328L448.955 120.292ZM421.019 146.884V145.884C412.868 145.884 406.134 142.979 401.434 137.945C396.728 132.906 393.987 125.652 393.987 116.836H392.987H391.987C391.987 126.068 394.862 133.838 399.972 139.311C405.088 144.789 412.37 147.884 421.019 147.884V146.884ZM392.987 116.836H393.987C393.987 108.02 396.728 100.766 401.434 95.7265C406.134 90.6928 412.868 87.788 421.019 87.788V86.788V85.788C412.37 85.788 405.088 88.8832 399.972 94.3615C394.862 99.8337 391.987 107.604 391.987 116.836H392.987ZM421.019 86.788V87.788C431.447 87.788 440.336 92.3164 444.57 102.903L445.499 102.532L446.427 102.161C441.83 90.6676 432.095 85.788 421.019 85.788V86.788ZM445.499 102.532L445.024 101.652L438.976 104.916L439.451 105.796L439.926 106.676L445.974 103.412L445.499 102.532ZM439.451 105.796L440.39 105.453C438.69 100.803 436.014 97.5186 432.637 95.408C429.271 93.3045 425.283 92.412 421.019 92.412V93.412V94.412C425.011 94.412 428.607 95.2475 431.577 97.104C434.536 98.9534 436.948 101.861 438.512 106.139L439.451 105.796ZM421.019 93.412V92.412C414.373 92.412 408.791 94.8931 404.891 99.2359C400.999 103.569 398.85 109.681 398.899 116.843L399.899 116.836L400.899 116.829C400.852 110.071 402.878 104.471 406.379 100.572C409.871 96.6829 414.897 94.412 421.019 94.412V93.412ZM399.899 116.836L398.899 116.829C398.85 123.991 401 130.08 404.893 134.39C408.794 138.709 414.376 141.164 421.019 141.164V140.164V139.164C414.894 139.164 409.868 136.915 406.377 133.05C402.878 129.176 400.852 123.601 400.899 116.843L399.899 116.836ZM421.019 140.164V141.164C431.847 141.164 440.523 134.124 442.638 123.952L441.659 123.748L440.68 123.544C438.763 132.764 430.926 139.164 421.019 139.164V140.164ZM441.659 123.748V122.748H422.843V123.748V124.748H441.659V123.748ZM422.843 123.748H423.843V116.836H422.843H421.843V123.748H422.843ZM422.843 116.836V117.836H448.955V116.836V115.836H422.843V116.836ZM448.955 116.836H447.955V120.292H448.955H449.955V116.836H448.955ZM506.196 146.5V147.5H508.106L507.018 145.93L506.196 146.5ZM497.748 146.5L496.928 147.072L497.226 147.5H497.748V146.5ZM479.22 119.908L480.041 119.336L479.742 118.908H479.22V119.908ZM466.644 119.908V118.908H465.644V119.908H466.644ZM466.644 146.5V147.5H467.644V146.5H466.644ZM459.732 146.5H458.732V147.5H459.732V146.5ZM459.732 87.844V86.844H458.732V87.844H459.732ZM487.764 119.908V118.908H485.854L486.943 120.478L487.764 119.908ZM466.644 94.756V93.756H465.644V94.756H466.644ZM466.644 112.9H465.644V113.9H466.644V112.9ZM506.196 146.5V145.5H497.748V146.5V147.5H506.196V146.5ZM497.748 146.5L498.569 145.928L480.041 119.336L479.22 119.908L478.4 120.48L496.928 147.072L497.748 146.5ZM479.22 119.908V118.908H466.644V119.908V120.908H479.22V119.908ZM466.644 119.908H465.644V146.5H466.644H467.644V119.908H466.644ZM466.644 146.5V145.5H459.732V146.5V147.5H466.644V146.5ZM459.732 146.5H460.732V87.844H459.732H458.732V146.5H459.732ZM459.732 87.844V88.844H488.052V87.844V86.844H459.732V87.844ZM488.052 87.844V88.844C492.628 88.844 496.369 90.3498 498.963 92.9326C501.556 95.5148 503.084 99.2544 503.084 103.876H504.084H505.084C505.084 98.8016 503.397 94.5252 500.374 91.5154C497.352 88.5062 493.077 86.844 488.052 86.844V87.844ZM504.084 103.876H503.084C503.084 108.447 501.557 112.189 498.961 114.785C496.365 117.381 492.624 118.908 488.052 118.908V119.908V120.908C493.081 120.908 497.356 119.219 500.375 116.199C503.396 113.179 505.084 108.905 505.084 103.876H504.084ZM488.052 119.908V118.908H487.764V119.908V120.908H488.052V119.908ZM487.764 119.908L486.943 120.478L505.375 147.07L506.196 146.5L507.018 145.93L488.586 119.338L487.764 119.908ZM488.052 112.9V113.9C491.016 113.9 493.541 112.907 495.326 111.108C497.11 109.311 498.076 106.788 498.076 103.876H497.076H496.076C496.076 106.34 495.267 108.329 493.907 109.7C492.548 111.069 490.56 111.9 488.052 111.9V112.9ZM497.076 103.876H498.076C498.076 100.92 497.113 98.3739 495.329 96.5623C493.543 94.7489 491.017 93.756 488.052 93.756V94.756V95.756C490.56 95.756 492.546 96.5871 493.904 97.9657C495.264 99.3461 496.076 101.36 496.076 103.876H497.076ZM488.052 94.756V93.756H466.644V94.756V95.756H488.052V94.756ZM466.644 94.756H465.644V112.9H466.644H467.644V94.756H466.644ZM466.644 112.9V113.9H488.052V112.9V111.9H466.644V112.9ZM551.027 87.844L551.972 87.5162L551.738 86.844H551.027V87.844ZM571.379 146.5V147.5H572.784L572.324 146.172L571.379 146.5ZM563.987 146.5L563.042 146.827L563.275 147.5H563.987V146.5ZM557.843 128.74L558.788 128.413L558.555 127.74H557.843V128.74ZM529.427 128.74V127.74H528.718L528.483 128.409L529.427 128.74ZM523.187 146.5V147.5H523.895L524.13 146.831L523.187 146.5ZM515.891 146.5L514.946 146.172L514.485 147.5H515.891V146.5ZM536.243 87.844V86.844H535.531L535.298 87.5162L536.243 87.844ZM541.427 94.276V93.276H540.717L540.483 93.9462L541.427 94.276ZM531.635 122.308L530.691 121.978L530.226 123.308H531.635V122.308ZM555.635 122.308V123.308H557.043L556.579 121.978L555.635 122.308ZM545.843 94.276L546.787 93.9462L546.553 93.276H545.843V94.276ZM551.027 87.844L550.082 88.1718L570.434 146.828L571.379 146.5L572.324 146.172L551.972 87.5162L551.027 87.844ZM571.379 146.5V145.5H563.987V146.5V147.5H571.379V146.5ZM563.987 146.5L564.932 146.173L558.788 128.413L557.843 128.74L556.898 129.067L563.042 146.827L563.987 146.5ZM557.843 128.74V127.74H529.427V128.74V129.74H557.843V128.74ZM529.427 128.74L528.483 128.409L522.243 146.169L523.187 146.5L524.13 146.831L530.37 129.071L529.427 128.74ZM523.187 146.5V145.5H515.891V146.5V147.5H523.187V146.5ZM515.891 146.5L516.836 146.828L537.188 88.1718L536.243 87.844L535.298 87.5162L514.946 146.172L515.891 146.5ZM536.243 87.844V88.844H551.027V87.844V86.844H536.243V87.844ZM541.427 94.276L540.483 93.9462L530.691 121.978L531.635 122.308L532.579 122.638L542.371 94.6058L541.427 94.276ZM531.635 122.308V123.308H555.635V122.308V121.308H531.635V122.308ZM555.635 122.308L556.579 121.978L546.787 93.9462L545.843 94.276L544.899 94.6058L554.691 122.638L555.635 122.308ZM545.843 94.276V93.276H541.427V94.276V95.276H545.843V94.276ZM588.894 123.556V122.556H587.894V123.556H588.894ZM588.894 146.5V147.5H589.894V146.5H588.894ZM581.982 146.5H580.982V147.5H581.982V146.5ZM581.982 87.844V86.844H580.982V87.844H581.982ZM588.894 94.756V93.756H587.894V94.756H588.894ZM588.894 116.644H587.894V117.644H588.894V116.644ZM608.478 87.844V88.844C613.629 88.844 617.826 90.5413 620.731 93.4471C623.637 96.3529 625.334 100.549 625.334 105.7H626.334H627.334C627.334 100.099 625.48 95.3671 622.146 92.0329C618.811 88.6987 614.079 86.844 608.478 86.844V87.844ZM626.334 105.7H625.334C625.334 110.851 623.637 115.047 620.731 117.953C617.826 120.859 613.629 122.556 608.478 122.556V123.556V124.556C614.079 124.556 618.811 122.701 622.146 119.367C625.48 116.033 627.334 111.301 627.334 105.7H626.334ZM608.478 123.556V122.556H588.894V123.556V124.556H608.478V123.556ZM588.894 123.556H587.894V146.5H588.894H589.894V123.556H588.894ZM588.894 146.5V145.5H581.982V146.5V147.5H588.894V146.5ZM581.982 146.5H582.982V87.844H581.982H580.982V146.5H581.982ZM581.982 87.844V88.844H608.478V87.844V86.844H581.982V87.844ZM608.478 116.644V117.644C611.974 117.644 614.954 116.457 617.062 114.323C619.168 112.19 620.326 109.189 620.326 105.7H619.326H618.326C618.326 108.739 617.325 111.21 615.639 112.917C613.954 114.623 611.511 115.644 608.478 115.644V116.644ZM619.326 105.7H620.326C620.326 102.211 619.168 99.2102 617.062 97.0774C614.954 94.9432 611.974 93.756 608.478 93.756V94.756V95.756C611.511 95.756 613.954 96.7768 615.639 98.4826C617.325 100.19 618.326 102.661 618.326 105.7H619.326ZM608.478 94.756V93.756H588.894V94.756V95.756H608.478V94.756ZM588.894 94.756H587.894V116.644H588.894H589.894V94.756H588.894ZM588.894 116.644V117.644H608.478V116.644V115.644H588.894V116.644ZM682.328 87.844H683.328V86.844H682.328V87.844ZM682.328 146.5V147.5H683.328V146.5H682.328ZM675.32 146.5H674.32V147.5H675.32V146.5ZM675.32 118.18H676.32V117.18H675.32V118.18ZM643.832 118.18V117.18H642.832V118.18H643.832ZM643.832 146.5V147.5H644.832V146.5H643.832ZM636.92 146.5H635.92V147.5H636.92V146.5ZM636.92 87.844V86.844H635.92V87.844H636.92ZM643.832 87.844H644.832V86.844H643.832V87.844ZM643.832 111.748H642.832V112.748H643.832V111.748ZM675.32 111.748V112.748H676.32V111.748H675.32ZM675.32 87.844V86.844H674.32V87.844H675.32ZM682.328 87.844H681.328V146.5H682.328H683.328V87.844H682.328ZM682.328 146.5V145.5H675.32V146.5V147.5H682.328V146.5ZM675.32 146.5H676.32V118.18H675.32H674.32V146.5H675.32ZM675.32 118.18V117.18H643.832V118.18V119.18H675.32V118.18ZM643.832 118.18H642.832V146.5H643.832H644.832V118.18H643.832ZM643.832 146.5V145.5H636.92V146.5V147.5H643.832V146.5ZM636.92 146.5H637.92V87.844H636.92H635.92V146.5H636.92ZM636.92 87.844V88.844H643.832V87.844V86.844H636.92V87.844ZM643.832 87.844H642.832V111.748H643.832H644.832V87.844H643.832ZM643.832 111.748V112.748H675.32V111.748V110.748H643.832V111.748ZM675.32 111.748H676.32V87.844H675.32H674.32V111.748H675.32ZM675.32 87.844V88.844H682.328V87.844V86.844H675.32V87.844ZM699.707 94.756V93.756H698.707V94.756H699.707ZM699.707 113.668H698.707V114.668H699.707V113.668ZM730.715 113.668H731.715V112.668H730.715V113.668ZM730.715 120.676V121.676H731.715V120.676H730.715ZM699.707 120.676V119.676H698.707V120.676H699.707ZM699.707 139.492H698.707V140.492H699.707V139.492ZM733.979 139.492H734.979V138.492H733.979V139.492ZM733.979 146.5V147.5H734.979V146.5H733.979ZM692.795 146.5H691.795V147.5H692.795V146.5ZM692.795 87.844V86.844H691.795V87.844H692.795ZM733.979 87.844H734.979V86.844H733.979V87.844ZM733.979 94.756V95.756H734.979V94.756H733.979ZM699.707 94.756H698.707V113.668H699.707H700.707V94.756H699.707ZM699.707 113.668V114.668H730.715V113.668V112.668H699.707V113.668ZM730.715 113.668H729.715V120.676H730.715H731.715V113.668H730.715ZM730.715 120.676V119.676H699.707V120.676V121.676H730.715V120.676ZM699.707 120.676H698.707V139.492H699.707H700.707V120.676H699.707ZM699.707 139.492V140.492H733.979V139.492V138.492H699.707V139.492ZM733.979 139.492H732.979V146.5H733.979H734.979V139.492H733.979ZM733.979 146.5V145.5H692.795V146.5V147.5H733.979V146.5ZM692.795 146.5H693.795V87.844H692.795H691.795V146.5H692.795ZM692.795 87.844V88.844H733.979V87.844V86.844H692.795V87.844ZM733.979 87.844H732.979V94.756H733.979H734.979V87.844H733.979ZM733.979 94.756V93.756H699.707V94.756V95.756H733.979V94.756ZM791.009 146.5V147.5H792.919L791.831 145.93L791.009 146.5ZM782.561 146.5L781.74 147.072L782.039 147.5H782.561V146.5ZM764.033 119.908L764.853 119.336L764.555 118.908H764.033V119.908ZM751.457 119.908V118.908H750.457V119.908H751.457ZM751.457 146.5V147.5H752.457V146.5H751.457ZM744.545 146.5H743.545V147.5H744.545V146.5ZM744.545 87.844V86.844H743.545V87.844H744.545ZM772.577 119.908V118.908H770.667L771.755 120.478L772.577 119.908ZM751.457 94.756V93.756H750.457V94.756H751.457ZM751.457 112.9H750.457V113.9H751.457V112.9ZM791.009 146.5V145.5H782.561V146.5V147.5H791.009V146.5ZM782.561 146.5L783.381 145.928L764.853 119.336L764.033 119.908L763.212 120.48L781.74 147.072L782.561 146.5ZM764.033 119.908V118.908H751.457V119.908V120.908H764.033V119.908ZM751.457 119.908H750.457V146.5H751.457H752.457V119.908H751.457ZM751.457 146.5V145.5H744.545V146.5V147.5H751.457V146.5ZM744.545 146.5H745.545V87.844H744.545H743.545V146.5H744.545ZM744.545 87.844V88.844H772.865V87.844V86.844H744.545V87.844ZM772.865 87.844V88.844C777.441 88.844 781.181 90.3498 783.775 92.9326C786.369 95.5148 787.897 99.2544 787.897 103.876H788.897H789.897C789.897 98.8016 788.209 94.5252 785.186 91.5154C782.164 88.5062 777.889 86.844 772.865 86.844V87.844ZM788.897 103.876H787.897C787.897 108.447 786.37 112.189 783.774 114.785C781.178 117.381 777.436 118.908 772.865 118.908V119.908V120.908C777.893 120.908 782.168 119.219 785.188 116.199C788.208 113.179 789.897 108.905 789.897 103.876H788.897ZM772.865 119.908V118.908H772.577V119.908V120.908H772.865V119.908ZM772.577 119.908L771.755 120.478L790.187 147.07L791.009 146.5L791.831 145.93L773.399 119.338L772.577 119.908ZM772.865 112.9V113.9C775.829 113.9 778.353 112.907 780.139 111.108C781.923 109.311 782.889 106.788 782.889 103.876H781.889H780.889C780.889 106.34 780.079 108.329 778.719 109.7C777.36 111.069 775.373 111.9 772.865 111.9V112.9ZM781.889 103.876H782.889C782.889 100.92 781.926 98.3739 780.141 96.5623C778.355 94.7489 775.829 93.756 772.865 93.756V94.756V95.756C775.373 95.756 777.359 96.5871 778.716 97.9657C780.076 99.3461 780.889 101.36 780.889 103.876H781.889ZM772.865 94.756V93.756H751.457V94.756V95.756H772.865V94.756ZM751.457 94.756H750.457V112.9H751.457H752.457V94.756H751.457ZM751.457 112.9V113.9H772.865V112.9V111.9H751.457V112.9ZM830.486 114.532L830.223 115.497L830.232 115.499L830.241 115.502L830.486 114.532ZM844.598 132.292L845.589 132.422L845.59 132.415L845.591 132.408L844.598 132.292ZM799.67 130.66L799.476 129.679L798.517 129.868L798.685 130.832L799.67 130.66ZM806.486 129.316L807.473 129.156L807.307 128.135L806.292 128.335L806.486 129.316ZM837.59 131.428L836.598 131.304L836.596 131.314L837.59 131.428ZM828.758 121.252L828.495 122.217L828.504 122.219L828.758 121.252ZM810.422 116.26L810.089 117.203L810.124 117.215L810.159 117.225L810.422 116.26ZM801.494 101.188L802.48 101.357L802.481 101.351L801.494 101.188ZM843.062 103.876L843.253 104.858L844.149 104.683L844.057 103.775L843.062 103.876ZM836.15 105.22L835.151 105.275L835.214 106.421L836.341 106.202L836.15 105.22ZM808.31 102.34L807.326 102.161L807.323 102.178L807.321 102.195L808.31 102.34ZM812.534 109.636L812.183 110.572L812.226 110.589L812.271 110.601L812.534 109.636ZM830.486 114.532L830.241 115.502C839.376 117.808 844.494 124.53 843.605 132.176L844.598 132.292L845.591 132.408C846.622 123.542 840.604 116.056 830.731 113.562L830.486 114.532ZM844.598 132.292L843.606 132.162C842.444 141.013 834.286 147.132 822.71 147.132V148.132V149.132C834.942 149.132 844.256 142.579 845.589 132.422L844.598 132.292ZM822.71 148.132V147.132C811.106 147.132 802.381 140.39 800.655 130.488L799.67 130.66L798.685 130.832C800.607 141.858 810.313 149.132 822.71 149.132V148.132ZM799.67 130.66L799.863 131.641L806.679 130.297L806.486 129.316L806.292 128.335L799.476 129.679L799.67 130.66ZM806.486 129.316L805.499 129.476C806.75 137.192 813.817 142.124 822.71 142.124V141.124V140.124C814.515 140.124 808.526 135.648 807.473 129.156L806.486 129.316ZM822.71 141.124V142.124C831.18 142.124 837.825 138.149 838.583 131.542L837.59 131.428L836.596 131.314C836.011 136.419 830.751 140.124 822.71 140.124V141.124ZM837.59 131.428L838.582 131.552C839.245 126.248 835.129 121.889 829.012 120.285L828.758 121.252L828.504 122.219C834.098 123.687 837.087 127.392 836.598 131.304L837.59 131.428ZM828.758 121.252L829.021 120.287L810.685 115.295L810.422 116.26L810.159 117.225L828.495 122.217L828.758 121.252ZM810.422 116.26L810.755 115.317C804.681 113.174 801.411 107.592 802.479 101.357L801.494 101.188L800.508 101.019C799.273 108.224 803.106 114.738 810.089 117.203L810.422 116.26ZM801.494 101.188L802.481 101.351C803.818 93.2388 811.521 87.596 822.038 87.596V86.596V85.596C810.859 85.596 802.05 91.6652 800.507 101.025L801.494 101.188ZM822.038 86.596V87.596C833.132 87.596 841.071 94.2021 842.067 103.977L843.062 103.876L844.057 103.775C842.94 92.8139 833.984 85.596 822.038 85.596V86.596ZM843.062 103.876L842.871 102.894L835.959 104.238L836.15 105.22L836.341 106.202L843.253 104.858L843.062 103.876ZM836.15 105.22L837.148 105.165C836.942 101.394 835.331 98.2043 832.65 95.9681C829.979 93.7399 826.307 92.508 822.038 92.508V93.508V94.508C825.928 94.508 829.121 95.6281 831.369 97.5039C833.608 99.3717 834.974 102.038 835.151 105.275L836.15 105.22ZM822.038 93.508V92.508C814.487 92.508 808.408 96.212 807.326 102.161L808.31 102.34L809.294 102.519C810.132 97.908 814.997 94.508 822.038 94.508V93.508ZM808.31 102.34L807.321 102.195C806.775 105.906 808.653 109.249 812.183 110.572L812.534 109.636L812.885 108.7C810.271 107.719 808.885 105.302 809.299 102.485L808.31 102.34ZM812.534 109.636L812.271 110.601L830.223 115.497L830.486 114.532L830.749 113.567L812.797 108.671L812.534 109.636ZM914.754 86.788V87.788C923.646 87.788 930.962 90.7553 936.054 95.8583C941.146 100.962 944.09 108.279 944.09 117.124H945.09H946.09C946.09 107.825 942.986 99.9743 937.47 94.4457C931.953 88.9167 924.102 85.788 914.754 85.788V86.788ZM945.09 117.124H944.09C944.09 126.018 941.145 133.335 936.055 138.425C930.964 143.515 923.648 146.46 914.754 146.46V147.46V148.46C924.1 148.46 931.951 145.357 937.469 139.839C942.986 134.322 946.09 126.47 946.09 117.124H945.09ZM914.754 147.46V146.46C905.909 146.46 898.617 143.516 893.538 138.426C888.458 133.335 885.514 126.018 885.514 117.124H884.514H883.514C883.514 126.47 886.617 134.321 892.122 139.838C897.627 145.356 905.454 148.46 914.754 148.46V147.46ZM884.514 117.124H885.514C885.514 108.279 888.458 100.961 893.538 95.8575C898.618 90.7544 905.911 87.788 914.754 87.788V86.788V85.788C905.452 85.788 897.625 88.9176 892.121 94.4465C886.617 99.9749 883.514 107.825 883.514 117.124H884.514ZM914.754 140.452V141.452C921.988 141.452 928.11 139.045 932.427 134.753C936.744 130.461 939.178 124.361 939.178 117.124H938.178H937.178C937.178 123.903 934.907 129.467 931.017 133.335C927.125 137.203 921.536 139.452 914.754 139.452V140.452ZM938.178 117.124H939.178C939.178 109.887 936.744 103.787 932.427 99.4948C928.11 95.2033 921.988 92.796 914.754 92.796V93.796V94.796C921.536 94.796 927.125 97.0447 931.017 100.913C934.907 104.781 937.178 110.345 937.178 117.124H938.178ZM914.754 93.796V92.796C907.519 92.796 901.42 95.2036 897.127 99.4969C892.833 103.79 890.426 109.89 890.426 117.124H891.426H892.426C892.426 110.342 894.674 104.778 898.541 100.911C902.407 97.0444 907.972 94.796 914.754 94.796V93.796ZM891.426 117.124H890.426C890.426 124.358 892.833 130.458 897.127 134.751C901.42 139.044 907.519 141.452 914.754 141.452V140.452V139.452C907.972 139.452 902.407 137.204 898.541 133.337C894.674 129.47 892.426 123.906 892.426 117.124H891.426ZM962.582 94.756V93.756H961.582V94.756H962.582ZM962.582 113.764H961.582V114.764H962.582V113.764ZM990.614 113.764H991.614V112.764H990.614V113.764ZM990.614 120.676V121.676H991.614V120.676H990.614ZM962.582 120.676V119.676H961.582V120.676H962.582ZM962.582 146.5V147.5H963.582V146.5H962.582ZM955.67 146.5H954.67V147.5H955.67V146.5ZM955.67 87.844V86.844H954.67V87.844H955.67ZM995.51 87.844H996.51V86.844H995.51V87.844ZM995.51 94.756V95.756H996.51V94.756H995.51ZM962.582 94.756H961.582V113.764H962.582H963.582V94.756H962.582ZM962.582 113.764V114.764H990.614V113.764V112.764H962.582V113.764ZM990.614 113.764H989.614V120.676H990.614H991.614V113.764H990.614ZM990.614 120.676V119.676H962.582V120.676V121.676H990.614V120.676ZM962.582 120.676H961.582V146.5H962.582H963.582V120.676H962.582ZM962.582 146.5V145.5H955.67V146.5V147.5H962.582V146.5ZM955.67 146.5H956.67V87.844H955.67H954.67V146.5H955.67ZM955.67 87.844V88.844H995.51V87.844V86.844H955.67V87.844ZM995.51 87.844H994.51V94.756H995.51H996.51V87.844H995.51ZM995.51 94.756V93.756H962.582V94.756V95.756H995.51V94.756ZM127.691 179.756V178.756H126.691V179.756H127.691ZM127.691 198.668H126.691V199.668H127.691V198.668ZM158.699 198.668H159.699V197.668H158.699V198.668ZM158.699 205.676V206.676H159.699V205.676H158.699ZM127.691 205.676V204.676H126.691V205.676H127.691ZM127.691 224.492H126.691V225.492H127.691V224.492ZM161.963 224.492H162.963V223.492H161.963V224.492ZM161.963 231.5V232.5H162.963V231.5H161.963ZM120.779 231.5H119.779V232.5H120.779V231.5ZM120.779 172.844V171.844H119.779V172.844H120.779ZM161.963 172.844H162.963V171.844H161.963V172.844ZM161.963 179.756V180.756H162.963V179.756H161.963ZM127.691 179.756H126.691V198.668H127.691H128.691V179.756H127.691ZM127.691 198.668V199.668H158.699V198.668V197.668H127.691V198.668ZM158.699 198.668H157.699V205.676H158.699H159.699V198.668H158.699ZM158.699 205.676V204.676H127.691V205.676V206.676H158.699V205.676ZM127.691 205.676H126.691V224.492H127.691H128.691V205.676H127.691ZM127.691 224.492V225.492H161.963V224.492V223.492H127.691V224.492ZM161.963 224.492H160.963V231.5H161.963H162.963V224.492H161.963ZM161.963 231.5V230.5H120.779V231.5V232.5H161.963V231.5ZM120.779 231.5H121.779V172.844H120.779H119.779V231.5H120.779ZM120.779 172.844V173.844H161.963V172.844V171.844H120.779V172.844ZM161.963 172.844H160.963V179.756H161.963H162.963V172.844H161.963ZM161.963 179.756V178.756H127.691V179.756V180.756H161.963V179.756ZM172.529 172.844V171.844H171.529V172.844H172.529ZM179.441 172.844H180.441V171.844H179.441V172.844ZM213.329 172.844V171.844H212.329V172.844H213.329ZM220.337 172.844H221.337V171.844H220.337V172.844ZM220.337 208.556H219.337C219.337 215.528 217.018 221.237 213.043 225.2C209.068 229.163 203.359 231.46 196.433 231.46V232.46V233.46C203.811 233.46 210.054 231.005 214.455 226.616C218.857 222.227 221.337 215.984 221.337 208.556H220.337ZM196.433 232.46V231.46C189.458 231.46 183.75 229.163 179.788 225.201C175.827 221.239 173.529 215.531 173.529 208.556H172.529H171.529C171.529 215.981 173.984 222.225 178.374 226.615C182.765 231.005 189.009 233.46 196.433 233.46V232.46ZM172.529 208.556H173.529V172.844H172.529H171.529V208.556H172.529ZM172.529 172.844V173.844H179.441V172.844V171.844H172.529V172.844ZM179.441 172.844H178.441V208.556H179.441H180.441V172.844H179.441ZM179.441 208.556H178.441C178.441 213.873 180.227 218.365 183.417 221.53C186.607 224.694 191.121 226.452 196.433 226.452V225.452V224.452C191.57 224.452 187.588 222.85 184.826 220.11C182.064 217.371 180.441 213.415 180.441 208.556H179.441ZM196.433 225.452V226.452C201.7 226.452 206.19 224.692 209.367 221.529C212.544 218.364 214.329 213.873 214.329 208.556H213.329H212.329C212.329 213.415 210.706 217.372 207.956 220.111C205.204 222.852 201.246 224.452 196.433 224.452V225.452ZM213.329 208.556H214.329V172.844H213.329H212.329V208.556H213.329ZM213.329 172.844V173.844H220.337V172.844V171.844H213.329V172.844ZM220.337 172.844H219.337V208.556H220.337H221.337V172.844H220.337ZM277.306 231.5V232.5H279.216L278.128 230.93L277.306 231.5ZM268.858 231.5L268.037 232.072L268.336 232.5H268.858V231.5ZM250.33 204.908L251.15 204.336L250.852 203.908H250.33V204.908ZM237.754 204.908V203.908H236.754V204.908H237.754ZM237.754 231.5V232.5H238.754V231.5H237.754ZM230.842 231.5H229.842V232.5H230.842V231.5ZM230.842 172.844V171.844H229.842V172.844H230.842ZM258.874 204.908V203.908H256.964L258.052 205.478L258.874 204.908ZM237.754 179.756V178.756H236.754V179.756H237.754ZM237.754 197.9H236.754V198.9H237.754V197.9ZM277.306 231.5V230.5H268.858V231.5V232.5H277.306V231.5ZM268.858 231.5L269.678 230.928L251.15 204.336L250.33 204.908L249.509 205.48L268.037 232.072L268.858 231.5ZM250.33 204.908V203.908H237.754V204.908V205.908H250.33V204.908ZM237.754 204.908H236.754V231.5H237.754H238.754V204.908H237.754ZM237.754 231.5V230.5H230.842V231.5V232.5H237.754V231.5ZM230.842 231.5H231.842V172.844H230.842H229.842V231.5H230.842ZM230.842 172.844V173.844H259.162V172.844V171.844H230.842V172.844ZM259.162 172.844V173.844C263.737 173.844 267.478 175.35 270.072 177.933C272.665 180.515 274.194 184.254 274.194 188.876H275.194H276.194C276.194 183.802 274.506 179.525 271.483 176.515C268.461 173.506 264.186 171.844 259.162 171.844V172.844ZM275.194 188.876H274.194C274.194 193.447 272.667 197.189 270.071 199.785C267.475 202.381 263.733 203.908 259.162 203.908V204.908V205.908C264.19 205.908 268.465 204.219 271.485 201.199C274.505 198.179 276.194 193.905 276.194 188.876H275.194ZM259.162 204.908V203.908H258.874V204.908V205.908H259.162V204.908ZM258.874 204.908L258.052 205.478L276.484 232.07L277.306 231.5L278.128 230.93L259.696 204.338L258.874 204.908ZM259.162 197.9V198.9C262.126 198.9 264.65 197.907 266.436 196.108C268.22 194.311 269.186 191.788 269.186 188.876H268.186H267.186C267.186 191.34 266.376 193.329 265.016 194.7C263.657 196.069 261.67 196.9 259.162 196.9V197.9ZM268.186 188.876H269.186C269.186 185.92 268.223 183.374 266.438 181.562C264.652 179.749 262.126 178.756 259.162 178.756V179.756V180.756C261.67 180.756 263.655 181.587 265.013 182.966C266.373 184.346 267.186 186.36 267.186 188.876H268.186ZM259.162 179.756V178.756H237.754V179.756V180.756H259.162V179.756ZM237.754 179.756H236.754V197.9H237.754H238.754V179.756H237.754ZM237.754 197.9V198.9H259.162V197.9V196.9H237.754V197.9ZM313.863 171.788V172.788C322.755 172.788 330.072 175.755 335.163 180.858C340.255 185.962 343.199 193.279 343.199 202.124H344.199H345.199C345.199 192.825 342.095 184.974 336.579 179.446C331.062 173.917 323.211 170.788 313.863 170.788V171.788ZM344.199 202.124H343.199C343.199 211.018 340.254 218.335 335.164 223.425C330.074 228.515 322.757 231.46 313.863 231.46V232.46V233.46C323.209 233.46 331.061 230.357 336.578 224.839C342.096 219.322 345.199 211.47 345.199 202.124H344.199ZM313.863 232.46V231.46C305.018 231.46 297.726 228.516 292.647 223.426C287.568 218.335 284.623 211.018 284.623 202.124H283.623H282.623C282.623 211.47 285.726 219.321 291.231 224.838C296.736 230.356 304.564 233.46 313.863 233.46V232.46ZM283.623 202.124H284.623C284.623 193.279 287.567 185.961 292.648 180.857C297.728 175.754 305.021 172.788 313.863 172.788V171.788V170.788C304.561 170.788 296.734 173.918 291.23 179.446C285.727 184.975 282.623 192.825 282.623 202.124H283.623ZM313.863 225.452V226.452C321.097 226.452 327.219 224.045 331.536 219.753C335.853 215.461 338.287 209.361 338.287 202.124H337.287H336.287C336.287 208.903 334.017 214.467 330.126 218.335C326.235 222.203 320.645 224.452 313.863 224.452V225.452ZM337.287 202.124H338.287C338.287 194.887 335.853 188.787 331.536 184.495C327.219 180.203 321.097 177.796 313.863 177.796V178.796V179.796C320.645 179.796 326.235 182.045 330.126 185.913C334.017 189.781 336.287 195.345 336.287 202.124H337.287ZM313.863 178.796V177.796C306.629 177.796 300.529 180.204 296.236 184.497C291.943 188.79 289.535 194.89 289.535 202.124H290.535H291.535C291.535 195.342 293.783 189.778 297.65 185.911C301.517 182.044 307.081 179.796 313.863 179.796V178.796ZM290.535 202.124H289.535C289.535 209.358 291.943 215.458 296.236 219.751C300.529 224.044 306.629 226.452 313.863 226.452V225.452V224.452C307.081 224.452 301.517 222.204 297.65 218.337C293.783 214.47 291.535 208.906 291.535 202.124H290.535ZM361.691 208.556V207.556H360.691V208.556H361.691ZM361.691 231.5V232.5H362.691V231.5H361.691ZM354.779 231.5H353.779V232.5H354.779V231.5ZM354.779 172.844V171.844H353.779V172.844H354.779ZM361.691 179.756V178.756H360.691V179.756H361.691ZM361.691 201.644H360.691V202.644H361.691V201.644ZM381.275 172.844V173.844C386.426 173.844 390.622 175.541 393.528 178.447C396.434 181.353 398.131 185.549 398.131 190.7H399.131H400.131C400.131 185.099 398.277 180.367 394.942 177.033C391.608 173.699 386.876 171.844 381.275 171.844V172.844ZM399.131 190.7H398.131C398.131 195.851 396.434 200.047 393.528 202.953C390.622 205.859 386.426 207.556 381.275 207.556V208.556V209.556C386.876 209.556 391.608 207.701 394.942 204.367C398.277 201.033 400.131 196.301 400.131 190.7H399.131ZM381.275 208.556V207.556H361.691V208.556V209.556H381.275V208.556ZM361.691 208.556H360.691V231.5H361.691H362.691V208.556H361.691ZM361.691 231.5V230.5H354.779V231.5V232.5H361.691V231.5ZM354.779 231.5H355.779V172.844H354.779H353.779V231.5H354.779ZM354.779 172.844V173.844H381.275V172.844V171.844H354.779V172.844ZM381.275 201.644V202.644C384.771 202.644 387.751 201.457 389.859 199.323C391.965 197.19 393.123 194.189 393.123 190.7H392.123H391.123C391.123 193.739 390.122 196.21 388.436 197.917C386.751 199.623 384.307 200.644 381.275 200.644V201.644ZM392.123 190.7H393.123C393.123 187.211 391.965 184.21 389.859 182.077C387.751 179.943 384.771 178.756 381.275 178.756V179.756V180.756C384.307 180.756 386.751 181.777 388.436 183.483C390.122 185.19 391.123 187.661 391.123 190.7H392.123ZM381.275 179.756V178.756H361.691V179.756V180.756H381.275V179.756ZM361.691 179.756H360.691V201.644H361.691H362.691V179.756H361.691ZM361.691 201.644V202.644H381.275V201.644V200.644H361.691V201.644ZM416.629 179.756V178.756H415.629V179.756H416.629ZM416.629 198.668H415.629V199.668H416.629V198.668ZM447.637 198.668H448.637V197.668H447.637V198.668ZM447.637 205.676V206.676H448.637V205.676H447.637ZM416.629 205.676V204.676H415.629V205.676H416.629ZM416.629 224.492H415.629V225.492H416.629V224.492ZM450.901 224.492H451.901V223.492H450.901V224.492ZM450.901 231.5V232.5H451.901V231.5H450.901ZM409.717 231.5H408.717V232.5H409.717V231.5ZM409.717 172.844V171.844H408.717V172.844H409.717ZM450.901 172.844H451.901V171.844H450.901V172.844ZM450.901 179.756V180.756H451.901V179.756H450.901ZM416.629 179.756H415.629V198.668H416.629H417.629V179.756H416.629ZM416.629 198.668V199.668H447.637V198.668V197.668H416.629V198.668ZM447.637 198.668H446.637V205.676H447.637H448.637V198.668H447.637ZM447.637 205.676V204.676H416.629V205.676V206.676H447.637V205.676ZM416.629 205.676H415.629V224.492H416.629H417.629V205.676H416.629ZM416.629 224.492V225.492H450.901V224.492V223.492H416.629V224.492ZM450.901 224.492H449.901V231.5H450.901H451.901V224.492H450.901ZM450.901 231.5V230.5H409.717V231.5V232.5H450.901V231.5ZM409.717 231.5H410.717V172.844H409.717H408.717V231.5H409.717ZM409.717 172.844V173.844H450.901V172.844V171.844H409.717V172.844ZM450.901 172.844H449.901V179.756H450.901H451.901V172.844H450.901ZM450.901 179.756V178.756H416.629V179.756V180.756H450.901V179.756ZM525.949 172.844L526.893 172.516L526.66 171.844H525.949V172.844ZM546.301 231.5V232.5H547.706L547.246 231.172L546.301 231.5ZM538.909 231.5L537.964 231.827L538.197 232.5H538.909V231.5ZM532.765 213.74L533.71 213.413L533.477 212.74H532.765V213.74ZM504.349 213.74V212.74H503.64L503.405 213.409L504.349 213.74ZM498.109 231.5V232.5H498.817L499.052 231.831L498.109 231.5ZM490.813 231.5L489.868 231.172L489.407 232.5H490.813V231.5ZM511.165 172.844V171.844H510.453L510.22 172.516L511.165 172.844ZM516.349 179.276V178.276H515.639L515.405 178.946L516.349 179.276ZM506.557 207.308L505.613 206.978L505.148 208.308H506.557V207.308ZM530.557 207.308V208.308H531.965L531.501 206.978L530.557 207.308ZM520.765 179.276L521.709 178.946L521.475 178.276H520.765V179.276ZM525.949 172.844L525.004 173.172L545.356 231.828L546.301 231.5L547.246 231.172L526.893 172.516L525.949 172.844ZM546.301 231.5V230.5H538.909V231.5V232.5H546.301V231.5ZM538.909 231.5L539.854 231.173L533.71 213.413L532.765 213.74L531.82 214.067L537.964 231.827L538.909 231.5ZM532.765 213.74V212.74H504.349V213.74V214.74H532.765V213.74ZM504.349 213.74L503.405 213.409L497.165 231.169L498.109 231.5L499.052 231.831L505.292 214.071L504.349 213.74ZM498.109 231.5V230.5H490.813V231.5V232.5H498.109V231.5ZM490.813 231.5L491.758 231.828L512.109 173.172L511.165 172.844L510.22 172.516L489.868 231.172L490.813 231.5ZM511.165 172.844V173.844H525.949V172.844V171.844H511.165V172.844ZM516.349 179.276L515.405 178.946L505.613 206.978L506.557 207.308L507.501 207.638L517.293 179.606L516.349 179.276ZM506.557 207.308V208.308H530.557V207.308V206.308H506.557V207.308ZM530.557 207.308L531.501 206.978L521.709 178.946L520.765 179.276L519.821 179.606L529.613 207.638L530.557 207.308ZM520.765 179.276V178.276H516.349V179.276V180.276H520.765V179.276ZM571.208 172.844L572.128 172.451L571.869 171.844H571.208V172.844ZM596.264 231.5V232.5H597.779L597.184 231.107L596.264 231.5ZM588.872 231.5L587.953 231.893L588.212 232.5H588.872V231.5ZM563.816 172.844V171.844H562.302L562.897 173.237L563.816 172.844ZM556.904 231.5H555.904V232.5H556.904V231.5ZM556.904 172.844V171.844H555.904V172.844H556.904ZM563.816 172.844H564.816V171.844H563.816V172.844ZM563.816 231.5V232.5H564.816V231.5H563.816ZM596.264 231.5H595.264V232.5H596.264V231.5ZM596.264 172.844V171.844H595.264V172.844H596.264ZM603.176 172.844H604.176V171.844H603.176V172.844ZM603.176 231.5V232.5H604.176V231.5H603.176ZM558.248 178.892H557.248V179.892H558.248V178.892ZM558.248 172.844V171.844H557.248V172.844H558.248ZM570.632 172.844H571.632V171.844H570.632V172.844ZM570.632 178.892V179.892H571.632V178.892H570.632ZM590.024 231.5H589.024V232.5H590.024V231.5ZM590.024 225.452V224.452H589.024V225.452H590.024ZM602.408 225.452H603.408V224.452H602.408V225.452ZM602.408 231.5V232.5H603.408V231.5H602.408ZM571.208 172.844L570.289 173.237L595.345 231.893L596.264 231.5L597.184 231.107L572.128 172.451L571.208 172.844ZM596.264 231.5V230.5H588.872V231.5V232.5H596.264V231.5ZM588.872 231.5L589.792 231.107L564.736 172.451L563.816 172.844L562.897 173.237L587.953 231.893L588.872 231.5ZM563.816 172.844V173.844H571.208V172.844V171.844H563.816V172.844ZM556.904 231.5H557.904V172.844H556.904H555.904V231.5H556.904ZM556.904 172.844V173.844H563.816V172.844V171.844H556.904V172.844ZM563.816 172.844H562.816V231.5H563.816H564.816V172.844H563.816ZM563.816 231.5V230.5H556.904V231.5V232.5H563.816V231.5ZM596.264 231.5H597.264V172.844H596.264H595.264V231.5H596.264ZM596.264 172.844V173.844H603.176V172.844V171.844H596.264V172.844ZM603.176 172.844H602.176V231.5H603.176H604.176V172.844H603.176ZM603.176 231.5V230.5H596.264V231.5V232.5H603.176V231.5ZM558.248 178.892H559.248V172.844H558.248H557.248V178.892H558.248ZM558.248 172.844V173.844H570.632V172.844V171.844H558.248V172.844ZM570.632 172.844H569.632V178.892H570.632H571.632V172.844H570.632ZM570.632 178.892V177.892H558.248V178.892V179.892H570.632V178.892ZM590.024 231.5H591.024V225.452H590.024H589.024V231.5H590.024ZM590.024 225.452V226.452H602.408V225.452V224.452H590.024V225.452ZM602.408 225.452H601.408V231.5H602.408H603.408V225.452H602.408ZM602.408 231.5V230.5H590.024V231.5V232.5H602.408V231.5ZM613.717 231.5H612.717V232.5H613.717V231.5ZM613.717 172.844V171.844H612.717V172.844H613.717ZM620.629 179.756V178.756H619.629V179.756H620.629ZM620.629 224.492H619.629V225.492H620.629V224.492ZM633.781 172.844V173.844C642.338 173.844 649.391 176.692 654.302 181.592C659.214 186.492 662.061 193.521 662.061 202.028H663.061H664.061C664.061 193.063 661.052 185.5 655.715 180.176C650.379 174.852 642.792 171.844 633.781 171.844V172.844ZM663.061 202.028H662.061C662.061 210.634 659.212 217.736 654.299 222.683C649.387 227.63 642.335 230.5 633.781 230.5V231.5V232.5C642.794 232.5 650.382 229.466 655.718 224.093C661.054 218.72 664.061 211.086 664.061 202.028H663.061ZM633.781 231.5V230.5H613.717V231.5V232.5H633.781V231.5ZM613.717 231.5H614.717V172.844H613.717H612.717V231.5H613.717ZM613.717 172.844V173.844H633.781V172.844V171.844H613.717V172.844ZM633.781 224.492V225.492C640.681 225.492 646.517 223.179 650.63 219.041C654.743 214.903 657.053 209.02 657.053 202.028H656.053H655.053C655.053 208.572 652.899 213.921 649.211 217.631C645.524 221.341 640.224 223.492 633.781 223.492V224.492ZM656.053 202.028H657.053C657.053 195.128 654.74 189.293 650.628 185.181C646.516 181.069 640.681 178.756 633.781 178.756V179.756V180.756C640.225 180.756 645.526 182.907 649.214 186.595C652.901 190.283 655.053 195.584 655.053 202.028H656.053ZM633.781 179.756V178.756H620.629V179.756V180.756H633.781V179.756ZM620.629 179.756H619.629V224.492H620.629H621.629V179.756H620.629ZM620.629 224.492V225.492H633.781V224.492V223.492H620.629V224.492ZM738.011 172.844L738.956 172.516L738.723 171.844H738.011V172.844ZM758.363 231.5V232.5H759.769L759.308 231.172L758.363 231.5ZM750.971 231.5L750.026 231.827L750.259 232.5H750.971V231.5ZM744.827 213.74L745.772 213.413L745.539 212.74H744.827V213.74ZM716.411 213.74V212.74H715.703L715.468 213.409L716.411 213.74ZM710.171 231.5V232.5H710.88L711.115 231.831L710.171 231.5ZM702.875 231.5L701.931 231.172L701.47 232.5H702.875V231.5ZM723.227 172.844V171.844H722.516L722.283 172.516L723.227 172.844ZM728.411 179.276V178.276H727.701L727.467 178.946L728.411 179.276ZM718.619 207.308L717.675 206.978L717.211 208.308H718.619V207.308ZM742.619 207.308V208.308H744.028L743.563 206.978L742.619 207.308ZM732.827 179.276L733.771 178.946L733.537 178.276H732.827V179.276ZM738.011 172.844L737.067 173.172L757.419 231.828L758.363 231.5L759.308 231.172L738.956 172.516L738.011 172.844ZM758.363 231.5V230.5H750.971V231.5V232.5H758.363V231.5ZM750.971 231.5L751.916 231.173L745.772 213.413L744.827 213.74L743.882 214.067L750.026 231.827L750.971 231.5ZM744.827 213.74V212.74H716.411V213.74V214.74H744.827V213.74ZM716.411 213.74L715.468 213.409L709.228 231.169L710.171 231.5L711.115 231.831L717.355 214.071L716.411 213.74ZM710.171 231.5V230.5H702.875V231.5V232.5H710.171V231.5ZM702.875 231.5L703.82 231.828L724.172 173.172L723.227 172.844L722.283 172.516L701.931 231.172L702.875 231.5ZM723.227 172.844V173.844H738.011V172.844V171.844H723.227V172.844ZM728.411 179.276L727.467 178.946L717.675 206.978L718.619 207.308L719.563 207.638L729.355 179.606L728.411 179.276ZM718.619 207.308V208.308H742.619V207.308V206.308H718.619V207.308ZM742.619 207.308L743.563 206.978L733.771 178.946L732.827 179.276L731.883 179.606L741.675 207.638L742.619 207.308ZM732.827 179.276V178.276H728.411V179.276V180.276H732.827V179.276ZM796.877 199.532L796.613 200.497L796.622 200.499L796.632 200.502L796.877 199.532ZM810.989 217.292L811.98 217.422L811.981 217.415L811.982 217.408L810.989 217.292ZM766.061 215.66L765.867 214.679L764.907 214.868L765.075 215.832L766.061 215.66ZM772.877 214.316L773.864 214.156L773.698 213.135L772.683 213.335L772.877 214.316ZM803.981 216.428L802.988 216.304L802.987 216.314L803.981 216.428ZM795.148 206.252L794.886 207.217L794.895 207.219L795.148 206.252ZM776.812 201.26L776.48 202.203L776.514 202.215L776.55 202.225L776.812 201.26ZM767.885 186.188L768.87 186.357L768.871 186.351L767.885 186.188ZM809.453 188.876L809.643 189.858L810.54 189.683L810.447 188.775L809.453 188.876ZM802.541 190.22L801.542 190.275L801.605 191.421L802.731 191.202L802.541 190.22ZM774.701 187.34L773.717 187.161L773.714 187.178L773.711 187.195L774.701 187.34ZM778.924 194.636L778.573 195.572L778.617 195.589L778.661 195.601L778.924 194.636ZM796.877 199.532L796.632 200.502C805.766 202.808 810.884 209.53 809.995 217.176L810.989 217.292L811.982 217.408C813.013 208.542 806.995 201.056 797.121 198.562L796.877 199.532ZM810.989 217.292L809.997 217.162C808.835 226.013 800.677 232.132 789.101 232.132V233.132V234.132C801.332 234.132 810.646 227.579 811.98 217.422L810.989 217.292ZM789.101 233.132V232.132C777.497 232.132 768.772 225.39 767.046 215.488L766.061 215.66L765.075 215.832C766.997 226.858 776.704 234.132 789.101 234.132V233.132ZM766.061 215.66L766.254 216.641L773.07 215.297L772.877 214.316L772.683 213.335L765.867 214.679L766.061 215.66ZM772.877 214.316L771.889 214.476C773.141 222.192 780.207 227.124 789.101 227.124V226.124V225.124C780.906 225.124 774.916 220.648 773.864 214.156L772.877 214.316ZM789.101 226.124V227.124C797.571 227.124 804.216 223.149 804.974 216.542L803.981 216.428L802.987 216.314C802.401 221.419 797.142 225.124 789.101 225.124V226.124ZM803.981 216.428L804.973 216.552C805.636 211.248 801.52 206.889 795.402 205.285L795.148 206.252L794.895 207.219C800.489 208.687 803.477 212.392 802.988 216.304L803.981 216.428ZM795.148 206.252L795.411 205.287L777.075 200.295L776.812 201.26L776.55 202.225L794.886 207.217L795.148 206.252ZM776.812 201.26L777.145 200.317C771.072 198.173 767.801 192.592 768.87 186.357L767.885 186.188L766.899 186.019C765.664 193.224 769.497 199.738 776.48 202.203L776.812 201.26ZM767.885 186.188L768.871 186.351C770.208 178.239 777.912 172.596 788.429 172.596V171.596V170.596C777.249 170.596 768.441 176.665 766.898 186.025L767.885 186.188ZM788.429 171.596V172.596C799.523 172.596 807.462 179.202 808.458 188.977L809.453 188.876L810.447 188.775C809.331 177.814 800.374 170.596 788.429 170.596V171.596ZM809.453 188.876L809.262 187.894L802.35 189.238L802.541 190.22L802.731 191.202L809.643 189.858L809.453 188.876ZM802.541 190.22L803.539 190.165C803.332 186.394 801.722 183.204 799.041 180.968C796.37 178.74 792.698 177.508 788.429 177.508V178.508V179.508C792.319 179.508 795.511 180.628 797.76 182.504C799.999 184.372 801.365 187.038 801.542 190.275L802.541 190.22ZM788.429 178.508V177.508C780.877 177.508 774.798 181.212 773.717 187.161L774.701 187.34L775.684 187.519C776.523 182.908 781.388 179.508 788.429 179.508V178.508ZM774.701 187.34L773.711 187.195C773.165 190.906 775.043 194.249 778.573 195.572L778.924 194.636L779.276 193.7C776.662 192.719 775.276 190.302 775.69 187.485L774.701 187.34ZM778.924 194.636L778.661 195.601L796.613 200.497L796.877 199.532L797.14 198.567L779.188 193.671L778.924 194.636ZM838.698 179.756V178.756H837.698V179.756H838.698ZM838.698 224.492H837.698V225.492H838.698V224.492ZM850.986 224.492H851.986V223.492H850.986V224.492ZM850.986 231.5V232.5H851.986V231.5H850.986ZM819.498 231.5H818.498V232.5H819.498V231.5ZM819.498 224.492V223.492H818.498V224.492H819.498ZM831.786 224.492V225.492H832.786V224.492H831.786ZM831.786 179.756H832.786V178.756H831.786V179.756ZM819.498 179.756H818.498V180.756H819.498V179.756ZM819.498 172.844V171.844H818.498V172.844H819.498ZM850.986 172.844H851.986V171.844H850.986V172.844ZM850.986 179.756V180.756H851.986V179.756H850.986ZM838.698 179.756H837.698V224.492H838.698H839.698V179.756H838.698ZM838.698 224.492V225.492H850.986V224.492V223.492H838.698V224.492ZM850.986 224.492H849.986V231.5H850.986H851.986V224.492H850.986ZM850.986 231.5V230.5H819.498V231.5V232.5H850.986V231.5ZM819.498 231.5H820.498V224.492H819.498H818.498V231.5H819.498ZM819.498 224.492V225.492H831.786V224.492V223.492H819.498V224.492ZM831.786 224.492H832.786V179.756H831.786H830.786V224.492H831.786ZM831.786 179.756V178.756H819.498V179.756V180.756H831.786V179.756ZM819.498 179.756H820.498V172.844H819.498H818.498V179.756H819.498ZM819.498 172.844V173.844H850.986V172.844V171.844H819.498V172.844ZM850.986 172.844H849.986V179.756H850.986H851.986V172.844H850.986ZM850.986 179.756V178.756H838.698V179.756V180.756H850.986V179.756ZM896.824 172.844L897.768 172.516L897.535 171.844H896.824V172.844ZM917.176 231.5V232.5H918.581L918.121 231.172L917.176 231.5ZM909.784 231.5L908.839 231.827L909.072 232.5H909.784V231.5ZM903.64 213.74L904.585 213.413L904.352 212.74H903.64V213.74ZM875.224 213.74V212.74H874.515L874.28 213.409L875.224 213.74ZM868.984 231.5V232.5H869.692L869.927 231.831L868.984 231.5ZM861.688 231.5L860.743 231.172L860.282 232.5H861.688V231.5ZM882.04 172.844V171.844H881.328L881.095 172.516L882.04 172.844ZM887.224 179.276V178.276H886.514L886.28 178.946L887.224 179.276ZM877.432 207.308L876.488 206.978L876.023 208.308H877.432V207.308ZM901.432 207.308V208.308H902.84L902.376 206.978L901.432 207.308ZM891.64 179.276L892.584 178.946L892.35 178.276H891.64V179.276ZM896.824 172.844L895.879 173.172L916.231 231.828L917.176 231.5L918.121 231.172L897.768 172.516L896.824 172.844ZM917.176 231.5V230.5H909.784V231.5V232.5H917.176V231.5ZM909.784 231.5L910.729 231.173L904.585 213.413L903.64 213.74L902.695 214.067L908.839 231.827L909.784 231.5ZM903.64 213.74V212.74H875.224V213.74V214.74H903.64V213.74ZM875.224 213.74L874.28 213.409L868.04 231.169L868.984 231.5L869.927 231.831L876.167 214.071L875.224 213.74ZM868.984 231.5V230.5H861.688V231.5V232.5H868.984V231.5ZM861.688 231.5L862.633 231.828L882.984 173.172L882.04 172.844L881.095 172.516L860.743 231.172L861.688 231.5ZM882.04 172.844V173.844H896.824V172.844V171.844H882.04V172.844ZM887.224 179.276L886.28 178.946L876.488 206.978L877.432 207.308L878.376 207.638L888.168 179.606L887.224 179.276ZM877.432 207.308V208.308H901.432V207.308V206.308H877.432V207.308ZM901.432 207.308L902.376 206.978L892.584 178.946L891.64 179.276L890.696 179.606L900.488 207.638L901.432 207.308ZM891.64 179.276V178.276H887.224V179.276V180.276H891.64V179.276Z" fill="white"/>
</svg>
