<svg viewBox="0 0 107 17" fill="none" xmlns="http://www.w3.org/2000/svg">
<path d="M86.9861 0.131714C90.0127 0.131728 92.3011 1.98784 92.5861 4.81956L92.6185 5.14318L92.3033 5.20529L90.5771 5.545L90.1809 5.62307L90.1584 5.21491C90.1161 4.42429 89.7875 3.7775 89.2506 3.32446C88.7108 2.86857 87.9382 2.59119 86.9861 2.59119C85.2571 2.59119 84.1051 3.43216 83.9053 4.52587C83.8124 5.18371 84.1283 5.74039 84.723 5.97282L89.1844 7.20451C91.6861 7.84504 93.2336 9.77623 92.969 12.0793V12.082L92.9683 12.0846C92.6263 14.7194 90.2421 16.3981 87.1543 16.3981C84.0179 16.3981 81.5443 14.5318 81.0546 11.6868L80.9954 11.3436L81.3325 11.2763L83.0348 10.9365L83.3923 10.8652L83.45 11.229C83.7026 12.8068 85.1438 13.9144 87.1543 13.9144C89.1401 13.9144 90.3829 12.992 90.5201 11.7792V11.7774L90.5208 11.7757C90.6334 10.859 89.9451 9.95595 88.575 9.59217L88.5715 9.59138L83.9932 8.32956L83.9806 8.32615L83.9686 8.32173C82.1784 7.68227 81.1925 5.98743 81.5098 4.11607C81.906 1.68693 84.1621 0.131714 86.9861 0.131714ZM8.11869 0.180338C10.9562 0.180345 13.7355 1.85306 15.0916 4.36966L15.2599 4.68201L14.9515 4.85269L13.4173 5.702L13.1068 5.87388L12.9389 5.55861C12.0181 3.83092 10.0762 2.66406 8.11869 2.66406C6.44838 2.66406 5.08622 3.22409 4.14249 4.17939C3.19875 5.1347 2.64543 6.51355 2.64543 8.20427C2.64543 9.89498 3.19875 11.2739 4.14249 12.2292C5.08622 13.1845 6.44838 13.7445 8.11869 13.7445C10.0784 13.7445 12.0182 12.6001 12.9379 10.8516L13.1052 10.5337L13.4173 10.7065L14.9515 11.5558L15.2599 11.7265L15.0916 12.0389C13.7355 14.5555 10.9562 16.2282 8.11869 16.2283C5.77339 16.2283 3.79148 15.4353 2.39512 14.0186C0.998761 12.602 0.21582 10.5899 0.21582 8.20427C0.21582 5.83043 0.999042 3.81867 2.39484 2.39936C3.79078 0.979841 5.77262 0.180338 8.11869 0.180338ZM24.4942 0.447254C25.7716 0.447261 26.8665 0.875499 27.643 1.65814C28.4196 2.44103 28.8492 3.5497 28.8492 4.85568C28.8492 6.15034 28.4191 7.25836 27.6434 8.04364C26.9875 8.7076 26.1036 9.12125 25.073 9.23322L29.3139 15.4266L29.6966 15.9856H26.7316L26.6265 15.8331L22.1051 9.26414H19.5003V15.9856H17.0706V0.447254H24.4942ZM31.8784 0.656707L34.8292 7.26577H35.7167L38.644 0.657683L38.7371 0.447254H41.3538L41.1319 0.948947L37.4403 9.29612L37.3472 9.50676H36.4882V15.9856H34.0345V9.50676H33.1996L33.1064 9.29612L29.4148 0.948947L29.1929 0.447254H31.7849L31.8784 0.656707ZM50.0698 0.447254C51.492 0.447261 52.7009 0.924165 53.5552 1.78906C54.4095 2.65394 54.8803 3.87779 54.8803 5.31677C54.8803 6.75574 54.4095 7.97953 53.5552 8.84436C52.7009 9.70927 51.492 10.1862 50.0698 10.1862H45.5316V15.9856H43.1021V0.447254H50.0698ZM68.618 2.90668H63.5359V15.9856H61.082V2.90668H56.0245V0.422978H68.618V2.90668ZM79.1046 2.90668H76.0364V13.5019H79.1046V15.9856H70.5384V13.5019H73.6066V2.90668H70.5384V0.447254H79.1046V2.90668ZM106.471 2.90668H101.389V15.9856H98.9357V2.90668H93.8774V0.422978H106.471V2.90668ZM7.77043 15.8658C7.85072 15.8686 7.93151 15.8707 8.01279 15.8716L8.11869 15.8721C8.1398 15.8721 8.16099 15.8719 8.18217 15.8718C8.16099 15.8719 8.1398 15.8721 8.11869 15.8721C8.0016 15.8721 7.88549 15.8698 7.77043 15.8658ZM26.9153 15.6294H29.0247L29.0247 15.6294H26.9153L22.2888 8.90798L26.9153 15.6294ZM43.454 15.6294H45.1797V15.6294H43.454V15.6294ZM61.4339 15.6294H63.184V15.6294H61.4339V15.6294ZM99.2875 15.6294H101.037V15.6294H99.2875V15.6294ZM50.0698 9.83001L50.1331 9.82973C50.1366 9.82973 50.1401 9.82959 50.1437 9.82952C50.119 9.82987 50.0944 9.83001 50.0698 9.83001ZM84.0854 7.98594L88.6644 9.24768C88.6869 9.25381 88.7094 9.26001 88.7327 9.26635V9.26628C88.7094 9.25994 88.6869 9.25374 88.6644 9.24761L84.0854 7.98587V7.98594ZM50.1331 8.08224L50.1458 8.0821C50.1507 8.08203 50.1556 8.08175 50.1599 8.0816C50.1514 8.08189 50.1423 8.0821 50.1331 8.08224ZM45.5316 7.72679H50.0698C50.8037 7.72679 51.3864 7.47733 51.7854 7.06839C52.1851 6.65887 52.4272 6.06172 52.4272 5.31677C52.4272 4.57174 52.1851 3.9746 51.7854 3.56508C51.3864 3.15606 50.8037 2.90668 50.0698 2.90668H45.5316V7.72679ZM19.5003 6.78046H24.4942C25.0971 6.78046 25.5659 6.57866 25.8834 6.25484C26.2013 5.93058 26.3956 5.45525 26.3956 4.85568C26.3956 4.24236 26.2003 3.76097 25.8825 3.43437C25.5653 3.10841 25.097 2.90668 24.4942 2.90668H19.5003V6.78046ZM54.5277 5.41044C54.5277 5.4004 54.5284 5.39035 54.5284 5.38024V5.31677C54.5284 5.34811 54.5284 5.37931 54.5277 5.41044ZM52.7783 5.37675C52.7783 5.3568 52.779 5.33686 52.779 5.31677L52.7783 5.37675ZM52.7516 4.87192C52.7544 4.8945 52.7572 4.91722 52.7593 4.94009C52.7614 4.96274 52.7636 4.98547 52.7657 5.0084C52.7621 4.96239 52.7572 4.91687 52.7516 4.87192ZM52.5602 4.12576C52.5686 4.14648 52.5771 4.16736 52.5848 4.18837L52.5602 4.12576C52.5517 4.1051 52.5433 4.08451 52.5349 4.06414L52.5602 4.12576ZM52.1633 3.45695C52.2182 3.52234 52.2689 3.5908 52.3167 3.66217C52.3287 3.68005 52.3399 3.69814 52.3519 3.71638C52.3744 3.75285 52.3969 3.79011 52.418 3.828C52.4392 3.86597 52.4596 3.90465 52.4793 3.94397C52.3913 3.76696 52.2857 3.60412 52.1633 3.45695ZM26.546 3.80834C26.5606 3.84232 26.5744 3.87687 26.5875 3.91199V3.91191C26.5744 3.8768 26.5606 3.84232 26.546 3.80834ZM5.15484 2.99394C5.11381 3.01566 5.07313 3.03789 5.03281 3.06054L5.09354 3.02692C5.11395 3.01588 5.13436 3.00484 5.15484 2.99394ZM25.6294 2.8103L25.6222 2.80652C25.6181 2.80439 25.614 2.80239 25.6098 2.80033C25.6164 2.8036 25.6229 2.80695 25.6294 2.8103ZM7.99118 2.30891C7.92504 2.31001 7.85931 2.3119 7.79401 2.31468L7.87458 2.31169C7.91328 2.31046 7.9522 2.30955 7.99118 2.30891ZM8.11869 2.30779L8.21355 2.3087C8.18196 2.30812 8.15029 2.30779 8.11869 2.30779ZM86.7327 2.24088C86.7299 2.24102 86.7271 2.24121 86.7236 2.24136C86.7285 2.24113 86.7334 2.24089 86.7384 2.24067L86.7327 2.24088Z" fill="#F5F5F5" />
</svg>
