<svg width="53" height="60" viewBox="0 0 53 60" fill="none" xmlns="http://www.w3.org/2000/svg">
<path d="M24.2823 2.71139C24.2823 1.49007 25.3132 0.5 26.5848 0.5C27.8564 0.5 28.8872 1.49007 28.8872 2.71139V26.5343C28.8872 27.7556 27.8564 28.7457 26.5848 28.7457C25.3132 28.7457 24.2823 27.7556 24.2823 26.5343V2.71139Z" fill="#E7E7E7"/>
<path d="M30.2036 12.1836C30.2036 10.9841 31.216 10.0118 32.4648 10.0118C33.7136 10.0118 34.7259 10.9841 34.7259 12.1836V35.1972C34.7259 36.3967 33.7136 37.369 32.4648 37.369C31.216 37.369 30.2036 36.3967 30.2036 35.1972V12.1836Z" fill="#E7E7E7"/>
<path d="M36.0836 28.3499C36.0836 27.1504 37.0959 26.1781 38.3447 26.1781C39.5935 26.1781 40.6059 27.1504 40.6059 28.3499V52.2668C40.6059 53.4662 39.5935 54.4385 38.3447 54.4385C37.0959 54.4385 36.0836 53.4662 36.0836 52.2668V28.3499Z" fill="#E7E7E7"/>
<path d="M12.4037 28.3499C12.4037 27.1504 13.416 26.1781 14.6648 26.1781C15.9136 26.1781 16.926 27.1504 16.926 28.3499V52.2668C16.926 53.4662 15.9136 54.4385 14.6648 54.4385C13.416 54.4385 12.4037 53.4662 12.4037 52.2668V28.3499Z" fill="#E7E7E7"/>
<path d="M6.44703 38.1782C6.44703 36.9787 7.45938 36.0064 8.70818 36.0064C9.95698 36.0064 10.9693 36.9787 10.9693 38.1782V57.3283C10.9693 58.5277 9.95698 59.5 8.70818 59.5C7.45938 59.5 6.44703 58.5277 6.44703 57.3283V38.1782Z" fill="#E7E7E7"/>
<path d="M42.0307 38.1781C42.0307 36.9787 43.043 36.0064 44.2918 36.0064C45.5406 36.0064 46.553 36.9787 46.553 38.1781V57.3282C46.553 58.5277 45.5406 59.5 44.2918 59.5C43.043 59.5 42.0307 58.5277 42.0307 57.3282V38.1781Z" fill="#E7E7E7"/>
<path d="M24.3236 38.468C24.3236 37.2685 25.336 36.2962 26.5848 36.2962C27.8336 36.2962 28.8459 37.2685 28.8459 38.468V57.2824C28.8459 58.4818 27.8336 59.4542 26.5848 59.4542C25.336 59.4542 24.3236 58.4818 24.3236 57.2824V38.468Z" fill="#E7E7E7"/>
<path d="M18.3387 40.9836C18.3387 39.7842 19.3511 38.8119 20.5999 38.8119C21.8487 38.8119 22.861 39.7842 22.861 40.9836V47.4661C22.861 48.6655 21.8487 49.6378 20.5999 49.6378C19.3511 49.6378 18.3387 48.6655 18.3387 47.4661V40.9836Z" fill="#E7E7E7"/>
<path d="M30.2036 40.9836C30.2036 39.7842 31.216 38.8119 32.4648 38.8119C33.7136 38.8119 34.7259 39.7842 34.7259 40.9836V47.4661C34.7259 48.6655 33.7136 49.6378 32.4648 49.6378C31.216 49.6378 30.2036 48.6655 30.2036 47.4661V40.9836Z" fill="#E7E7E7"/>
<path d="M47.9777 51.8096C47.9777 50.6101 48.99 49.6378 50.2388 49.6378C51.4876 49.6378 52.5 50.6101 52.5 51.8096V52.2668C52.5 53.4662 51.4876 54.4385 50.2388 54.4385C48.99 54.4385 47.9777 53.4662 47.9777 52.2668V51.8096Z" fill="#E7E7E7"/>
<path d="M0.5 51.8096C0.5 50.6101 1.51235 49.6378 2.76116 49.6378C4.00996 49.6378 5.02231 50.6101 5.02231 51.8096V52.2668C5.02231 53.4662 4.00996 54.4385 2.76116 54.4385C1.51235 54.4385 0.5 53.4662 0.5 52.2668V51.8096Z" fill="#E7E7E7"/>
<path d="M24.3236 32.2801C24.3236 31.0807 25.336 30.1084 26.5848 30.1084C27.8336 30.1084 28.8459 31.0807 28.8459 32.2801V32.7373C28.8459 33.9368 27.8336 34.9091 26.5848 34.9091C25.336 34.9091 24.3236 33.9368 24.3236 32.7373V32.2801Z" fill="#E7E7E7"/>
<path d="M18.3387 12.1836C18.3387 10.9841 19.3511 10.0118 20.5999 10.0118C21.8487 10.0118 22.861 10.9841 22.861 12.1836V35.1972C22.861 36.3967 21.8487 37.369 20.5999 37.369C19.3511 37.369 18.3387 36.3967 18.3387 35.1972V12.1836Z" fill="#E7E7E7"/>
</svg>
